<?xml version="1.0" standalone="no"?>
<!DOCTYPE svg PUBLIC "-//W3C//DTD SVG 1.1//EN" "http://www.w3.org/Graphics/SVG/1.1/DTD/svg11.dtd" >
<svg xmlns="http://www.w3.org/2000/svg" xmlns:xlink="http://www.w3.org/1999/xlink" version="1.1">
<metadata></metadata>
<defs>
<font id="liquidism_part_2regular" horiz-adv-x="630" >
<font-face units-per-em="2048" ascent="1638" descent="-410" />
<missing-glyph horiz-adv-x="500" />
<glyph horiz-adv-x="0" />
<glyph unicode="&#xd;" />
<glyph unicode=" " />
<glyph unicode="!" horiz-adv-x="813" d="M317 995q0 20 19.5 73.5t19.5 80.5v115q0 133 86 166q12 4 43 16q0 -12 23 -12q8 0 24.5 6t24.5 6q20 0 64.5 -22.5t50.5 -39.5q14 -27 28 -75q25 -252 21 -303q-2 -27 -37 -412q-2 -18 -45 -45q-49 -33 -57 -43q-8 -29 -15 -55q-12 -29 -45 -29q-82 0 -78 119 q2 94 -12 145q-14 25 -31 72q0 51 -16 145q-4 12 -36 51t-32 41zM371 170q0 49 48 100.5t97 51.5q10 0 29 -11l22 -12q61 -12 86 -49q10 -16 24.5 -64.5t14.5 -68.5q0 -102 -119 -119q-18 -51 -26 -61q-18 -31 -53 -31q-43 0 -56 37q0 55 -10 129q-10 10 -43 39 q-14 12 -14 59z" />
<glyph unicode="&#x22;" horiz-adv-x="1017" d="M74 1462q0 37 45 83t82 46t69 -14q131 -55 131 -250q0 -53 -49 -139q-18 -20 -49 -58v-86q-8 -80 -55 -79q-43 0 -62 116q-6 0 -15 -3t-15 -3q-70 0 -70 72q0 16 23 43q47 55 47 110q0 35 -41 88.5t-41 73.5zM477 1434q0 27 25.5 71.5t48.5 53.5q37 14 67 14 q234 0 234 -178q0 -113 -43 -166q-8 -10 -55 -43q-39 -27 -47 -49q4 6 4 -68q0 -86 -72 -86h-31q-25 37 -24 82q0 20 4 41q-98 39 -99 76q0 6 41 60t41 63q0 16 -39 36q-16 8 -35.5 41t-19.5 52z" />
<glyph unicode="#" horiz-adv-x="1558" d="M80 473q0 27 22.5 73t42.5 64q53 27 58 29q33 20 39 45q18 72 18 129v27q-2 4 -14 4q-6 0 -29.5 -17.5t-32.5 -17.5q-82 0 -82 70q0 37 23 102q25 74 49 84q53 2 160 27q29 10 74 65q-35 43 -35 62q0 6 8 22q2 6 2 66q0 45 20 63q63 59 150 60q78 0 111.5 -25t33.5 -98 q0 -8 -2 -31v-33q0 -53 9 -94q57 10 71 14q53 14 68 72l14 111q4 31 43 68.5t70 37.5q102 0 102 -104q0 -49 -14.5 -148.5t-14.5 -83.5q0 -53 39 -69l15 -7q18 -10 20 -12q56 -55 56 -166q0 -43 -15 -80q-18 -49 -53 -49q-16 0 -32.5 29t-24.5 29q-27 0 -56 -11 q-12 -80 -12 -137q0 -23 47 -46.5t49 -29.5q20 -45 21 -149q0 -35 -25 -88q-27 -59 -57 -60h-19q-18 0 -36 31l-19 29q-4 0 -43 -29q-2 -59 -4 -74q-6 -43 -29 -71q-18 -16 -49 -60q-2 -43 -6 -88q-14 -76 -68 -76q-29 0 -41 45q-16 57 -18 60q-29 -23 -61 -23 q-45 0 -45 160q0 20 11 57t11 58q0 35 -7 43t-40 8q-35 0 -46 -12.5t-18 -48.5q-8 -47 -14 -60q-37 -76 -102 -110q0 -160 -66 -160q-63 0 -63 82q0 16 6 30q-98 37 -98 76q0 -12 14 103q2 98 0 149q-86 53 -86 84zM530 688q0 -66 105 -65q88 0 88 139q0 41 -10 47 q-37 23 -86 22q-96 0 -97 -143z" />
<glyph unicode="%" horiz-adv-x="1302" d="M0 1186q0 86 55 178q68 115 176 115q8 0 12.5 -13.5t12.5 -13.5t7 3t7 3q98 0 163 -57.5t65 -153.5q0 -53 -43 -200q-10 -14 -43 -64q-20 -29 -109 -45q-18 -12 -53 -59q-27 -37 -49 -37q-35 0 -74 65q0 37 -4 49q-8 25 -37 48l-35 26q-51 70 -51 156zM152 -104 q0 47 81 210q18 49 19 95q0 20 -5 58t-5 58q0 45 94 164q39 63 70 162l59 184q31 35 80 103q16 37 39 129q8 35 34 127q45 133 207 459q14 -14 29 -15q12 0 34.5 7.5t35.5 7.5q70 0 115.5 -55.5t45.5 -127.5q0 -59 -45 -147q-39 -68 -77 -137q-18 -35 -45 -150l-35 -156 l-62 -159q-45 -117 -45 -197q0 -29 2 -37q6 -27 -10 -94q-20 -88 -74 -88q-20 0 -47 27q-29 -31 -47 -164q-12 -94 -22 -187q-6 -41 -70 -110q-16 -6 -43 -29q-10 -74 -41 -184q-27 -53 -82 -53q-59 0 -76 88q-6 37 -18 108q-35 20 -94 76q-2 8 -2 27zM829 254q0 106 66 221 q76 133 188 133q76 0 143.5 -81.5t67.5 -157.5q0 -41 -25.5 -125t-47.5 -117q-20 -18 -58 -57q-23 -49 -43 -99q-39 -70 -92 -69q-45 0 -45 75q0 80 4 64q-4 12 -41 31q-25 12 -51 26q-66 61 -66 156z" />
<glyph unicode="&#x26;" horiz-adv-x="1595" d="M158 166q0 37 10 92q16 86 16 92q4 27 0 82l-6 70q0 59 51 129q10 14 95 110q4 6 86 64q57 41 57 78q0 51 -57 71q-78 27 -88 37q4 12 26 103q10 63 17 92q12 55 34 84q47 59 205 174q45 33 101 47q102 27 163 27q47 0 118 -21.5t97.5 -50.5t46.5 -141q14 -23 37 -70 l31 -107q0 -10 -21.5 -47t-23.5 -47q-2 -4 0 -90q2 -129 -80 -129q-27 0 -53 53q-29 -14 -86 -45q-10 -51 64.5 -140t127.5 -89q2 0 72 82t117 82q55 0 104 -88q43 -76 43 -121q0 -35 -18 -76q-20 -49 -51 -49q-27 0 -33 29q-27 -37 -27 -80q0 -16 58.5 -94t58.5 -125 q0 -41 -27.5 -75t-66.5 -36q-6 -86 -15 -111q-18 -66 -69 -65q-37 0 -62 72q-8 53 -45 157q-74 -25 -63 -24q-29 0 -35 34q-14 80 -18 95l-76 -23q-43 -12 -68 -37q-125 -125 -246 -114q0 -49 -22 -99q-27 -61 -70 -61q-66 0 -69 61q-2 31 -2 95q-8 18 -21 24q-27 4 -76 14 q-29 10 -88 70l-41 -29q-35 -25 -59 -24q-53 0 -53 88zM520 451q0 -29 39 -74q12 -23 31 -55q12 -14 47 -15q37 0 77 56.5t40 95.5q0 25 -19 53q-41 -12 -57 -12q-8 0 -46 37.5t-44 37.5q-27 0 -49 -59q-18 -49 -19 -65zM690 1102q0 -20 33 -45t55 -25q27 0 63 41t36 68 q0 25 -27 49q2 -31 -22.5 -65.5t-53.5 -34.5q-31 0 -35 38q-6 53 -18 68q-8 -14 -19 -27q-12 -27 -12 -67z" />
<glyph unicode="'" horiz-adv-x="477" d="M121 1487q0 37 44 83t81 46q39 0 71 -14q132 -55 132 -250q0 -53 -50 -138q-18 -20 -49 -59q0 -45 -2 -86q-4 -80 -55 -80q-49 0 -62 117q-4 0 -14 -2t-14 -2q-72 0 -72 69q0 16 23 43q49 57 49 113q0 33 -41 86t-41 74z" />
<glyph unicode="(" horiz-adv-x="772" d="M0 178q0 8 41 201q10 49 14 227q2 115 6 152q12 113 48 190q31 68 108 166q39 49 152 195q43 59 172 235q76 100 194 101q39 0 65.5 -35t26.5 -76q0 -82 -184 -373q0 -96 -2 -170q-4 -152 -84 -151q-23 0 -70 37q-6 6 -20 69q-35 -27 -53 -45q-29 -27 -41 -53 q-37 -76 -37 -301q0 -203 74 -344q41 -78 137 -180q74 -78 74 -121q0 -55 -43 -90q-6 -6 -91 -56q14 -160 -102 -159q-72 0 -82 100l-12 123q-12 23 -33 47q-61 47 -72 57q-35 35 -43 58q-4 12 -10 69q-2 27 -18 45q-63 16 -76 23q-39 18 -39 59z" />
<glyph unicode=")" horiz-adv-x="790" d="M45 1470q0 33 21.5 62t54.5 29q78 0 137 -56q25 -23 94 -121q82 -115 117 -153q137 -150 176 -268q27 -84 35 -215q2 -76 10 -226l33 -164q0 -37 -57 -53q-31 -8 -41 -18q-10 -90 -56 -133q-78 -74 -86 -88q-6 -104 -8 -115q-16 -70 -67 -70q-23 0 -50.5 17.5t-30.5 37 t-3 76.5q-6 12 -62 29q-25 6 -41 59q-6 20 -6 31q0 39 31 70q125 125 168 231q35 86 35 227q0 287 -109 328q0 -14 -6 -39q-29 -49 -68 -49q-66 0 -69 125q-2 70 -2 141q-150 238 -150 305z" />
<glyph unicode="*" horiz-adv-x="874" d="M102 432q0 25 16.5 50.5t39.5 25.5q8 0 27.5 -7t27.5 -7q23 0 37 16q-8 31 -31 31q-6 0 -20.5 -3t-22.5 -3q-35 0 -35 40q0 16 37 78q8 27 33 72q12 14 33 14q29 0 43 -53q4 -27 8 -55q4 -12 14 -35q2 31 2 43q0 16 -5 50t-5 50q0 45 78 45q57 0 76 -55q-4 -29 6 -92 l45 65q23 27 59 27q4 0 31 -12t29 -15q49 -88 49 -131q0 -14 -17.5 -32.5t-31.5 -20.5q-37 -4 -84 -14q-12 -4 -13 -17q0 -8 54 -22q61 -16 69 -21q37 -20 41 -43q13 -69 13 -79q0 -20 -25 -37q-6 0 -35 -4q-23 -51 -92 -52q-35 0 -45 23.5t-21 50.5q-4 12 -38 62h-23 q0 -2 -2 -3v-6q0 -8 7 -26.5t7 -26.5q0 -72 -92 -82q-2 -2 -12 -31.5t-29 -35.5q-2 -2 -14 -2q-33 0 -39 44t-8 46l-21 12q-10 4 -10 18q0 8 33 52q23 25 43 51q2 6 -10 6q-4 0 -42 -23.5t-63 -23.5q-72 0 -72 98z" />
<glyph unicode="+" horiz-adv-x="1187" d="M174 721q0 61 57 94q47 27 113 27q8 0 26.5 -3t26.5 -3q23 0 23 34q0 20 -21 43l-28 25q-20 25 -21 55q0 18 23.5 39t42.5 21q10 0 28.5 -3t28.5 -3q23 0 60.5 12t46.5 12q68 0 102 -59q18 -31 35 -107q12 -57 31 -57q4 0 10 3t10 3q12 0 48 -15.5t48 -15.5q8 0 5 6.5 t3 6.5q117 0 172 -97q23 -38 23 -77q0 -70 -49 -95q-55 -20 -109 -41q-2 -33 -2 -63q-8 -18 -71 -19q-53 0 -66 19q-8 12 -12 67q-6 4 -25.5 34t-21.5 30q-6 0 -17 -25q0 41 5.5 -60t5.5 -112q0 -272 -123 -272q-45 0 -64 10q-31 16 -65 80q-6 10 0 61q4 39 -11 64 q-2 2 -45 53q-23 27 -22 51q0 37 57 91v20q-10 0 -29.5 -4t-27.5 -4q-86 0 -143.5 45t-57.5 129z" />
<glyph unicode="," horiz-adv-x="565" d="M207 127q0 37 44 83t81 46q39 0 71 -14q132 -55 132 -250q0 -53 -52 -137q-16 -20 -49 -60v-86q0 -80 -55 -80q-49 0 -62 117q-4 0 -14 -2t-14 -2q-72 0 -72 70q0 16 23 43q49 57 49 112q0 33 -41 87.5t-41 72.5z" />
<glyph unicode="-" horiz-adv-x="1210" d="M133 580q0 35 31 86t61 61q72 25 101 25q8 0 5 -6.5t5 -6.5q12 0 47 15.5t49 15.5q4 0 10.5 -3t10.5 -3q35 0 57 22l14 -12q0 2 8.5 2t8.5 2q0 4 -4 8q150 -35 223 -34q16 0 46 3t46 3q63 0 113 -29q57 -33 57 -92q0 -39 -16 -80q-18 -47 -50 -61q-68 -31 -137 -31 q-18 0 -57 2t-57 2q-14 0 -44 -10t-43 -10q-25 0 -71.5 11t-71.5 11q-37 0 -41 -47l-8 -96q-16 -49 -80 -49q-63 0 -63 71q0 8 4 49q4 35 2 45q-8 14 -96 29q-59 29 -60 107z" />
<glyph unicode="." horiz-adv-x="661" d="M180 92q0 70 38 126t104 56q72 0 139 -43q78 -46 78 -114q0 -51 -56.5 -104.5t-107.5 -53.5q-55 0 -121 39q-74 43 -74 94z" />
<glyph unicode="/" horiz-adv-x="1071" d="M152 -104q0 47 81 210q18 49 19 95q0 20 -5 58t-5 58q0 45 94 164q39 63 70 162l59 184q31 35 80 103q16 37 39 129q8 35 34 127q45 133 207 459q14 -14 29 -15q12 0 34.5 7.5t35.5 7.5q70 0 115.5 -55.5t45.5 -127.5q0 -59 -45 -147q-39 -68 -77 -137q-18 -35 -45 -150 l-35 -156l-62 -159q-45 -117 -45 -197q0 -29 2 -37q6 -27 -10 -94q-20 -88 -74 -88q-20 0 -47 27q-29 -31 -47 -164q-12 -94 -22 -187q-6 -41 -70 -110q-16 -6 -43 -29q-10 -74 -41 -184q-27 -53 -82 -53q-59 0 -76 88q-6 37 -18 108q-35 20 -94 76q-2 8 -2 27z" />
<glyph unicode="0" horiz-adv-x="1107" d="M72 690q0 27 18 66l45 75v211q0 111 68.5 238t163.5 174q23 0 65 4q129 33 125 33q10 0 27 -8q27 -16 49 -25q111 -18 147 -35q68 -31 99 -106q14 -37 34 -133q4 -20 78 -127q27 -47 27 -115q0 55 14 -176q0 -10 10.5 -32t10.5 -32t-16.5 -40.5t-18.5 -36.5 q-18 -82 -17 -140q4 -109 -22 -194q-12 -39 -76 -101q-4 -4 -61 -77q-35 -45 -68 -47q-49 -8 -145 -21q-8 -8 -41 -131q-27 -96 -82 -96q-53 0 -70 110q-2 16 -14 127q-12 23 -43 23h-21q-14 -2 -22 -2q-66 0 -88 74l-25 129q-41 70 -49 155q-10 109 -22 144q-80 68 -80 112 zM389 793q0 -49 33 -291q8 -61 33 -148q33 -72 139 -71q121 0 158 123q18 61 18 215q0 -29 -2 -25q-4 4 -8 40t-12 103q-16 160 -23 250l-6 107q-6 90 -49 90q-12 0 -41 -41t-56 -41q-43 0 -51 31v65q-4 29 -16 51h-23q-94 -168 -94 -458z" />
<glyph unicode="1" horiz-adv-x="724" d="M78 989q0 37 28 113q18 47 39 92l91 129q20 29 20 82q12 2 55 19.5t51 17.5q49 0 119 -37q31 -16 47 -47q49 -90 50 -223q0 -47 -6.5 -141.5t-6.5 -141.5q8 -25 29 -104q8 -31 8 -181q0 45 -3 -22.5t-3 -153.5q-4 -94 -2 -108q8 -113 -37 -172q-37 -23 -90 -88 q-8 -41 -16 -84q-20 -70 -70 -70q-47 0 -57 80l-13 92q-33 35 -73 117q6 35 6 88q0 33 -2 71q-12 18 -23.5 37t-11.5 49q0 23 10 56q14 41 16 53q4 23 5 88q0 227 -15 281q0 2 -68.5 32.5t-74.5 42.5q-2 4 -2 33z" />
<glyph unicode="2" horiz-adv-x="1161" d="M57 248q0 100 72 244q16 33 111 108l225 225q27 25 100 90q12 10 45 92.5t33 100.5q0 51 -40 94t-91 43h-33q-55 -51 -129 -139q-12 -57 -24 -117q-33 -109 -90 -108q-27 0 -52.5 23.5t-23.5 49.5q4 66 -29 127.5t-33 81.5q0 211 131 303q61 43 107 47q59 -2 199 -2 q10 0 30.5 5.5t30.5 5.5q104 0 139 -15q55 -23 141.5 -105.5t100.5 -133.5q20 -72 20 -154q0 -80 -28 -133q-59 -111 -92 -180q-35 -39 -84 -123q-2 -27 -9 -105q-8 -86 -75 -86q-25 0 -74 78q-131 -92 -131 -162q0 -20 23.5 -35.5t45.5 -15.5q23 0 68 3t68 3q102 0 186 -20 q33 -8 117 -35q49 -16 49 -180q0 -123 -8 -156q-20 -84 -103 -84q-41 0 -68.5 79t-35.5 79t-25.5 -5t-25.5 -5q-12 0 -46 11t-47 11q-6 0 -61 -38t-61 -38q-20 0 -45 52.5t-43 52.5q-84 0 -125 -19l-51 -87q-50 -87 -80 -87q-59 0 -68 97q-8 115 -18 127q-18 8 -58 30 q-12 10 -22 29q-12 29 -13 76z" />
<glyph unicode="3" horiz-adv-x="1107" d="M66 233q0 45 44 103.5t87 58.5q76 0 122 -49q31 -43 62 -88q43 -51 86 -51q119 0 172 47q20 18 29 70q16 78 16 79q27 80 27 76q0 31 -25 39q-59 -59 -72 -59q-41 0 -57 127q-2 16 -14 47q-8 2 -37 2q-8 0 -22.5 -3t-22.5 -3q-33 0 -71 26.5t-38 57.5q0 14 14.5 50 t24.5 48q43 20 115 59q12 8 32.5 45t34.5 48q25 6 62 34q23 37 22 95q0 43 -12 61q-27 41 -147 47q-20 2 -95 -94q-25 -12 -55 -39q-6 -31 -26 -147q-14 -84 -74 -84q-37 0 -45 55l-13 84q-78 18 -77 80q0 8 7 28.5t7 30.5l4 92q12 115 127 158q31 12 109 37q57 35 176 90 q29 8 131 8q53 0 145 -61q23 -14 58 -105q39 -61 90 -166q6 -12 4 -53q-2 -45 0 -57q29 -172 28 -162q0 -59 -51 -59q-6 0 -15 3t-15 3q-29 0 -44 -41l-16 -45q27 -16 70 -47q35 -33 45 -103q4 -33 16 -117q17 -100 17 -118q0 -39 -29 -109q-37 -90 -41 -112q-2 -12 0 -44 l4 -57q6 -84 -70 -84q-10 0 -32.5 6t-32.5 6q-27 0 -78 -70.5t-72 -70.5q-39 0 -68.5 53.5t-58.5 53.5q-18 0 -54 -12.5t-54 -12.5q-55 0 -117 35l-65 37l-36 -47t-63 -47q-49 0 -61 43t8 159q6 35 6 54q0 20 -13 48.5t-13 32.5z" />
<glyph unicode="4" horiz-adv-x="1167" d="M63 522q0 68 74 164l82 107q25 63 57 139q10 23 56 59q61 49 76 66q31 78 98 176q14 14 201 233q8 10 41.5 23.5t48.5 13.5q8 0 108 -30q84 -78 98.5 -118t2.5 -212q8 -66 18 -381q2 -43 0 -82q-2 -53 -2 -113q27 -23 80 -67q41 -39 41 -92q0 -49 -25 -91 q-29 -47 -74 -47q-25 0 -32 9l-25 32q-4 -2 0 -131q0 -6 -39 -131q-16 -18 -39 -55q-2 -10 -2 -66q0 -94 -92 -94q-43 0 -55 51l-12 86q-4 8 -54 31q-25 31 -28 148q0 -2 4 65q4 66 -26 87.5t-95 10.5q-51 -8 -129 4q-12 -12 -39 -81q-18 -47 -66 -48q-49 0 -63 52l-8 79 q-63 18 -90 35q-39 23 -62 74q-29 55 -29 94zM444 565q6 0 19.5 -3t19.5 -3q10 0 56.5 20.5t58.5 20.5q8 0 24.5 -6t24.5 -6q57 0 45 215l-4 78q-4 78 -4 118q-29 -29 -46 -78t-9 -85q14 -66 8 -86q-16 -39 -57 -39q-6 0 -18.5 6t-20.5 6q-23 0 -60 -57.5t-37 -81.5v-19z " />
<glyph unicode="5" horiz-adv-x="1185" d="M76 238l8 10q6 8 0 45l-6 37q0 72 74 110q59 33 137 33q47 0 90 -37l70 -74q43 -45 83 -55l11 -10l61 12q45 8 74 58q10 16 14 69l8 88q0 10 10.5 33t10.5 33q0 31 -19 37q-2 0 -40 2q-45 2 -46 53q0 18 7 43q12 47 -17 66q-39 -18 -110 -46q-31 0 -95 -16 q-10 -8 -36 -102q-8 -18 -38 -36t-51 -18q-31 0 -43 45q-4 25 -6 50q-111 41 -110 145q0 16 41 221q16 33 39 94q14 123 20 158q16 86 47 150q16 33 142 45q45 4 159 16q135 16 223 16q63 0 95 -8q20 -16 65 -45q23 -10 47 -20q66 -43 66 -176q0 -37 -19 -88 q-20 -61 -49 -62q-33 0 -54 31t-17 63q-33 -6 -68 -6q-8 0 -92 23q-20 0 -55 -72q-10 -23 -35 -45q-66 4 -82 33q-6 27 -10 53q-10 25 -43 25q-31 0 -56 -80q-18 -61 -18 -90q0 -41 20 -41q63 0 70 2q57 12 72 12q8 0 28.5 7t28.5 7q20 0 62 -8t63 -8h16q43 0 111 -27 q37 -14 119 -139q29 -43 47 -190q14 -115 14 -197q0 -106 -63 -182q-139 -166 -181 -226q-6 -12 -42.5 -22t-57.5 -10q-4 0 -11 3t-11 3t-29 -19.5t-27 -25.5q-2 -27 -14 -82q-8 -18 -40 -46t-50 -28q-47 0 -64 62l-24 90q-49 6 -142 20q-12 6 -57 47q-37 35 -55 35l-37 -20 q-37 -21 -62 -21q-49 0 -53 25q-16 92 -16 77q0 10 6 60q2 14 -8 31z" />
<glyph unicode="6" horiz-adv-x="1239" d="M80 600q0 23 20 86l25 90q4 76 16 170q4 33 58 96l80 93l96 153q51 82 131 117q88 39 170 61l6 13q6 10 14 10q129 0 258 -88q143 -96 144 -219q0 -61 -31 -95q-23 -23 -88 -51q-10 -29 -18 -55q-16 -33 -43 -33h-19q-35 0 -49 72l-21 98q-23 59 -75 60q-47 0 -84 -94.5 t-76 -94.5q-29 0 -57 60q-18 -18 -43 -95t-25 -110q0 -18 10 -19q6 0 69.5 32t82.5 36q61 14 137 14q41 0 104 -24q53 -20 119 -47q63 -33 96 -82q8 -8 23 -148q6 -55 18 -188q2 -20 20.5 -65.5t18.5 -61.5q0 -29 -8 -51q-8 -6 -55 -39q-23 -16 -49.5 -88t-42.5 -84 q-16 -4 -37 -25q-2 -23 -10 -70q-29 -102 -88 -102q-43 0 -52 27q-14 47 -26 61q-20 -4 -82 -24q-49 -16 -58 -17q-4 0 -12 3t-12 3q-2 0 -32 -67.5t-73 -67.5q-49 0 -59 49q-14 66 -18 76q-12 25 -54 37q-47 14 -53 22q-80 94 -117 195l-12 90q-8 53 -27 84 q-6 10 -40.5 23.5t-43.5 19.5q-16 12 -8 113q2 33 -8 88zM451 403q0 -41 10 -57q16 -27 22 -53q4 -39 23 -94q74 -4 123 -54q12 -12 30 -12q31 0 74 55q51 66 58 72q41 20 108 62q6 6 16.5 40t10.5 44q0 37 -73 128t-108 91h-18q-4 -16 -4 -93q0 -100 -47 -100 q-53 0 -111 129q-115 -76 -114 -158z" />
<glyph unicode="7" horiz-adv-x="1126" d="M78 1272q0 39 42 82t81 47q29 2 114 10q6 0 19.5 8t19.5 8q8 0 30 -9t30 -9q27 0 76 17.5t75 17.5q66 0 121 -21q2 0 10.5 -7t16.5 -7q10 0 31.5 6t31.5 6q4 0 11.5 3t11.5 3q178 0 178 -118q0 -20 -6 -74.5t-4 -81.5q2 -18 15 -60.5t13 -62.5q0 -68 -61 -67 q-4 0 -12.5 3t-12.5 3q-29 0 -37 -33q-6 -45 -26 -125q-49 -55 -80 -100q-104 -145 -111 -316q0 -23 -36.5 -47t-36.5 -49q0 -20 8 -55q0 -4 -17 -25l-16 -119q-29 -94 -100 -94h-23q-2 -8 -14 -69q-14 -78 -80 -78t-70 78l-6 112q-16 16 -43 51q-8 14 -8 43q0 27 68 236 q18 37 55 119q6 55 33 151q31 33 77 84q6 33 27 92l90 140q74 115 74 137v24h-145q-31 0 -90.5 -11t-49.5 -11q-18 0 -52 11t-52 11q-4 0 -35 -49t-63 -49q-51 0 -58 59q2 49 2 101q-16 98 -16 84z" />
<glyph unicode="8" horiz-adv-x="1167" d="M63 510q0 68 21 104q4 8 84 95q72 78 72 98q0 27 -31 27q-8 0 -14.5 -5.5t-12.5 -5.5q-68 0 -59 92q4 47 4 74q-2 8 -14.5 34t-12.5 34q0 109 97 227q76 94 163 148q70 43 76 43q8 0 7 -3.5t6 -3.5q6 0 30.5 18.5t32.5 20.5q78 20 113 21q10 0 31.5 -8.5t33.5 -8.5 q164 6 240 -102q27 -37 26 -84q0 -90 -4 -76q29 -74 60 -170q27 -80 26 -131q0 -27 -61.5 -75t-61.5 -68q0 -6 37 -60q35 -27 78 -71q16 -18 48 -90t32 -95q-8 -12 -29 -65q-2 -6 -16 -45q-14 -125 -21 -143q-18 -53 -94 -117q-29 -12 -82 -49q-18 -18 -34 -56 q-18 -43 -26.5 -54t-37.5 -26.5t-43 -15.5q-12 0 -60.5 20.5t-76.5 20.5q-18 0 -53 -9t-54 -9q-51 0 -139 53q-10 0 -47 -26.5t-57 -26.5h-25q-37 18 -35 112q0 45 -6 72q-25 33 -61 119q2 39 -4 98q-2 20 -27 100q-18 59 -19 68zM399 547q0 -18 8.5 -52t8.5 -53 q2 -4 -4 -34.5t-6 -36.5q0 -25 67 -66q57 -35 88 -35h43q8 2 35 17q129 68 129 174q0 25 -14 71q-20 68 -47 68q-2 0 -36 -23.5t-55 -23.5q-6 0 -20 2t-21 2q0 -76 -40 -76q-63 0 -68 74l-6 115q-18 -10 -40 -54.5t-22 -68.5zM434 1102q0 -70 37 -96q35 -14 88 -43 q68 -57 76 -58q20 0 49 19q18 12 63.5 87.5t45.5 98.5q0 29 -29 58.5t-57 29.5q-2 0 -20.5 -35t-49.5 -35q-29 0 -64.5 44.5t-56.5 44.5q-6 0 -28.5 -13.5t-32.5 -13.5q-20 -76 -21 -88z" />
<glyph unicode="9" horiz-adv-x="1216" d="M49 942q0 18 19.5 78.5t29.5 79.5q74 131 92 157q57 88 117 142q100 90 187 98q68 0 104 4l152 17q47 0 118 -50q61 -41 101 -86q33 -39 89 -219t56 -239q0 57 -16.5 -85.5t-16.5 -158.5l6 -98q4 -63 -6 -97q-57 -90 -67 -180q-4 -31 4 -91t4 -91q-2 -20 -30.5 -37.5 t-51.5 -17.5q-18 0 -25 10q-29 -23 -71 -80q4 -23 2 -70q-12 -90 -94 -90q-61 0 -78 43q-4 33 -4 37q-6 20 -19 29q-125 10 -127 12q-70 12 -121 53q-23 18 -45 19l-32 -21q-35 -20 -62 -20q-35 0 -60.5 23.5t-25.5 56.5q0 92 29 176q37 109 110 108q12 0 121 -58t158 -58 t113.5 38.5t85.5 81.5q43 92 43 136v57q-4 4 -15 4q-49 0 -89 -73.5t-70 -73.5q-31 0 -43.5 47t-16.5 47t-13 -3t-13 -3q-6 0 -39 14t-39 14q-8 0 -22.5 -2t-22.5 -2q-27 0 -68 23l-31 -41q-31 -41 -67 -41q-37 0 -49 39q-8 25 -10.5 78t-10.5 77q-35 23 -76 74q2 33 -8 98 q-6 14 -46 53.5t-40 61.5zM373 965q0 -35 14 -50q27 -14 68 -49q12 -16 24 -51q6 -25 15 -47q55 -20 49 -20q119 66 147 65q4 0 14.5 -3t14.5 -3q37 0 72.5 42t35.5 79q0 16 2 47t2 47q0 78 -2 86q-6 29 -34 74q-37 59 -66 59q-12 0 -29.5 -70.5t-62.5 -70.5q-35 0 -29 -2 q-12 4 -39 47q-14 4 -39 14q-14 18 -43 47q-33 -27 -45 -39q-27 -27 -32 -45q-37 -102 -37 -157z" />
<glyph unicode=":" horiz-adv-x="696" d="M199 915q0 70 34 121q39 59 107 60q72 0 139 -43q76 -47 76 -115q0 -53 -55.5 -105.5t-108.5 -52.5q-61 0 -123 37q-70 41 -69 98zM217 500q0 53 43 99t96 46q12 0 42 -13.5t44 -13.5q45 -10 77 -49t32 -84q0 -39 -37 -100q-45 -74 -96 -74q-16 0 -60 29q-41 8 -94 27 q-20 6 -35 59q-12 43 -12 74z" />
<glyph unicode=";" horiz-adv-x="702" d="M260 532q0 47 33 94.5t78 47.5q8 0 21.5 -9.5t19.5 -9.5q8 0 6 3.5t6 3.5q82 0 149.5 -62.5t67.5 -142.5q0 -53 -27 -103q-37 -68 -43 -88v-96q-8 -82 -73 -82h-19q-29 0 -51 125q-33 6 -92 41q2 23 18.5 69t16.5 72q0 20 -6 29q-37 27 -103 88q-2 6 -2 20zM260 956 q0 25 33 84q39 72 88 72q74 0 147 -51q82 -55 82 -125q0 -59 -52 -108.5t-112 -49.5q-68 0 -127 55.5t-59 122.5z" />
<glyph unicode="=" horiz-adv-x="1269" d="M195 545q0 35 30.5 86t61.5 61q72 25 100 25q8 0 5 -6t5 -6q12 0 47 15t50 15q4 0 10 -3t10 -3q35 0 57 23l15 -13q0 2 8 2t8 2q0 4 -4 9q150 -35 223 -35q16 0 46 3t46 3q63 0 113 -29q57 -33 57 -92q0 -39 -16 -80q-18 -47 -49 -61q-68 -31 -137 -31q-18 0 -57.5 2 t-57.5 2q-14 0 -44 -10t-42 -10q-25 0 -72 11t-71 11q-37 0 -41 -47l-9 -96q-16 -49 -79 -49t-64 71q0 8 4 50q4 35 2 45q-8 14 -96 28q-59 29 -59 107zM201 991q0 63 47 99q47 29 323 96l13 -10q27 0 80 -8.5t77 -8.5q402 -8 402 -164q0 -51 -42 -94t-93 -43q-6 0 -21.5 5 t-21.5 5q-18 0 -68.5 -41t-73.5 -41q-20 0 -45 23q-37 33 -53 37h-72q-10 0 -62 -23.5t-63 -23.5q-18 0 -64 17.5t-65 17.5q-14 0 -55 -35t-68 -35q-23 0 -40 19.5t-17 41.5q0 16 2 52q2 35 0 53q0 8 -10 30.5t-10 30.5z" />
<glyph unicode="?" horiz-adv-x="1353" d="M135 1219q0 92 62 114q25 10 63 33q47 72 94 145q43 53 133 54q14 0 53.5 -14.5t53.5 -14.5l102 51q39 12 152 12q94 0 196 -57q119 -68 119 -153q0 -23 -17.5 -71t-17.5 -71q0 -27 74 -160q43 -135 43 -172q0 -111 -74 -200q-76 -96 -184 -97q-20 0 -58 12.5t-59 12.5 q-37 0 -36 -68q0 -29 6 -67l6 -39q-6 -12 -15 -35q-55 -27 -65 -26q-43 0 -90 37.5t-51 37.5q-8 0 -52 -18q-12 -4 -47 -109q-12 -33 -47 -64.5t-67 -31.5q-70 0 -70 105q0 16 3 51t3 51q0 14 -5 21.5t-56 46.5q-41 31 -41 63q0 92 80 137q33 8 100 27q6 10 23 24 q133 84 176 91q57 -4 170 8q57 16 57 98q0 18 -16.5 70.5t-18.5 72.5q0 14 7 44t7 44q-47 39 -88 39q-37 0 -51 -55q-8 -29 -18 -84q-18 -49 -74 -49q-37 0 -57 37l-35 63q-10 -12 -55 -108q-29 -61 -93 -62q-37 0 -106 31q-76 33 -88 59q-31 66 -31 134zM406 35 q0 96 88 147q72 43 174 43q61 0 128.5 -45t67.5 -104q0 -35 -51 -90q-57 -59 -59 -64q-6 -16 -11 -110q-2 -49 -52 -88t-101 -39q-84 0 -96 104q-4 37 -15 133q-14 29 -49 55q-25 18 -24 58z" />
<glyph unicode="A" horiz-adv-x="1447" d="M39 348q0 18 37 98q31 51 104 179q98 168 121 249q61 129 74 175q8 39 35 141l45 174q0 76 -29 90q6 25 37 68q38 24 93 24h5q23 0 69 -11t68 -11q29 0 81 17.5t81 17.5q47 0 121 -105q68 -96 72 -127q14 -106 45 -229q6 -20 90 -168q74 -127 80 -191q8 -78 106 -204 q23 -29 39 -101q17 0 17 -20l-15 -39q-4 -16 -2 -53q-16 -4 -35 -11q10 -12 11 -30q0 -35 -24 -66t-56 -31h-29q-6 0 -23.5 17.5t-25.5 17.5q-10 0 -44 -91t-75 -91q-39 0 -45 86q-2 29 -2 104l-23 99q-14 59 -36 94q-31 33 -74 96q-2 12 -12 31q-6 8 -27 8q-35 0 -82 -50 t-53 -50q-27 0 -51 41l-33 53q-29 -8 -58 -14q-39 -14 -55 -43q-23 -102 -29 -127q-25 -72 -63 -109q-23 -6 -68 -27q-14 -33 -43 -96q-41 -90 -82 -90q-37 0 -49 31q-8 59 -45 159q-12 18 -47 25q-51 8 -53 10q-10 4 -26.5 36t-16.5 44zM625 807q2 -2 8 -21q27 -12 78 -67 q4 23 62 54.5t58 51.5q0 55 -38 127l-43 18q-43 19 -45 48q-80 -172 -80 -211z" />
<glyph unicode="B" horiz-adv-x="1208" d="M14 1065q0 29 44 121t44 133q0 20 -4 59t-4 60q0 63 15 108q6 18 63 45t82 27q31 0 85 -28.5t73 -28.5q57 0 167.5 22.5t168.5 22.5q10 0 39.5 -11.5t39.5 -11.5q43 0 99 -35q106 -39 147 -95t41 -171q0 -57 -35 -125q-2 -2 -88 -143q109 -100 137 -144q50 -73 50 -186 q0 -92 -9 -117q-16 -35 -43 -104q-4 -41 -26 -119q-6 -12 -45 -12q-20 0 -90 35q-43 0 -127 -62q-57 -102 -101 -102q-35 0 -82 41t-53 41t-43 -17.5t-45 -17.5q-12 0 -37.5 3t-38.5 3q-2 0 -73.5 -129t-85.5 -129t-39 17.5t-25 31.5q-4 76 -6 96q-8 55 -19 82 q-14 35 -56 58.5t-42 25.5q-21 46 -21 106q0 12 1 25q2 33 6 133l6 340q-2 23 -18 68q-51 63 -52 84zM430 1130q0 -6 3 -19t3 -19h21q27 23 92 26q78 4 98 12q45 17 45 76q0 61 -78 62q-8 0 -21 -6.5t-20 -6.5q-27 -2 -45 0l-39 5q-18 0 -38.5 -52.5t-20.5 -77.5zM440 623 q0 -29 47 -29q12 0 37 6t37 6q16 0 51 -12t52 -12h3q154 0 154 114q0 43 -22.5 85t-61.5 42q-23 0 -64.5 -59t-56.5 -59q-20 0 -52 64.5t-56 64.5q-14 0 -25 -15q5 -21 5 -37q0 -19 -7 -30q-41 -66 -41 -129z" />
<glyph unicode="C" horiz-adv-x="1212" d="M41 932q0 49 51 184q6 47 27 129q23 47 170 144q53 55 145 129q29 10 88 12q76 2 93.5 4t76 24.5t66.5 22.5q31 0 182 -63q41 -6 123 -33q56 -32 56 -118q0 -8 -1 -17q-2 -20 4 -59.5t6 -55.5q0 -35 -12 -78q-14 -55 -39 -55q-2 0 -49 34.5t-65 34.5q-4 0 -35 -61 t-54 -61q-31 0 -67.5 96t-56.5 96q-10 0 -32 -8t-30 -8q-98 0 -108 -2q-49 -10 -84 -72q13 -29 13 -82q0 -27 -3 -59q-2 -25 -23.5 -65t-25.5 -58q-6 -31 0 -58q10 -43 10 -55t-8 -36.5t-8 -35.5q0 -68 57 -120q49 -45 121 -62l67 -22q12 0 37 6t37 6q6 0 25.5 9t25.5 9 q16 0 52 -15t51 -15q27 0 112 59l84 57q51 0 80 -43t29 -96q0 -63 -10.5 -93t-47.5 -77q-43 -53 -65 -53q-6 0 -24.5 12t-24.5 12q-8 0 -53.5 -23.5t-53.5 -23.5q-14 0 -40.5 9.5t-41.5 9.5q-10 0 -77.5 -33t-98.5 -33q-14 0 -98 41q-25 -23 -27 -88q-4 -78 -10 -102 q-14 -49 -72 -49q-23 0 -42 24.5t-21 48.5l2 90q2 90 -125 160q-49 27 -66 27q-4 0 -53 -29t-59 -29q-53 0 -55 43q8 96 8 259q-12 27 -25 75q-2 12 -2 29.5t2 40.5q6 68 6 113q0 36 -4 57q-10 57 -10 39z" />
<glyph unicode="D" horiz-adv-x="1384" d="M14 905q0 27 15 76q14 59 16 80q6 57 6 199q0 20 12 57q0 80 19 151q27 102 76 103q12 0 35.5 -5t35.5 -5q10 0 32 8t34 8q41 0 120 -17.5t120 -17.5q20 0 63 6t64 6q49 0 90 -28q63 -43 86 -53q33 -14 147 -39q78 -16 150 -62q84 -51 112 -112q20 -43 37 -123 q18 -88 31 -123q22 -62 22 -156q0 -8 -18 -108q-2 -6 -4 -25q-18 -160 -133 -274q-18 -18 -162 -80q-23 -27 -88 -78q-37 -10 -105 -39q-36 -22 -36 -77q0 -21 5 -60t5 -58q0 -84 -90 -84q-41 0 -58 19q-6 80 -20 170q-8 51 -66 51q-12 0 -33.5 -6t-33.5 -6q-8 0 -24.5 6 t-24.5 6q-39 0 -115 -126t-105 -126q-37 0 -55 103l-22 127q-6 12 -45 61q-29 37 -33 68q-3 18 -3 43q0 33 5 79q10 100 10 129v22q0 165 -29 212q-45 74 -45 98zM436 571q0 -16 15 -28q45 22 69 22h2h17q27 0 69 -26q55 -35 78 -43q16 10 19 43q2 27 2 51q10 16 68.5 54 t72.5 56.5t31 165.5q8 74 8 109q0 66 -41 149q-55 115 -148 115q-25 0 -57.5 -59.5t-38.5 -59.5t-42 18.5t-42 18.5q-14 0 -31.5 -13.5t-20.5 -27.5t-3 -102q0 -16 -13.5 -49t-13.5 -45q0 -25 11.5 -74t11.5 -74q0 -33 -11.5 -100.5t-11.5 -100.5z" />
<glyph unicode="E" horiz-adv-x="1060" d="M18 786q0 31 23 138q25 119 29 149q2 21 2 45q0 41 -6 92q-14 113 -15 129q0 61 21 113q12 31 100 59q6 2 43 2q10 0 31.5 -3t31 -3t21.5 -5t20 -5q6 0 19.5 5t21.5 5q2 -2 13 -10q18 31 82 33q8 0 26.5 7t28.5 7q14 0 42 -6t42 -6l272 29q41 0 52 -9q23 -23 47 -80 t24 -90q0 -29 -67 -112q-4 -2 -29 -2q-14 0 -41 9t-39 9q-31 0 -85 -47t-58 -47q-6 0 -46 29.5t-44 29.5q-10 0 -29 -6t-27 -6h-16q-74 0 -74 -63q0 -88 72 -89q6 0 6 3.5t6 3.5q54 6 72 6h6l6 6q4 4 12 4q6 0 18.5 -3t19.5 -3t27.5 -5t31.5 -5q16 0 46.5 3t47.5 3 q76 0 90 -2q88 -12 88 -201q0 -39 -22.5 -74t-59.5 -35q-10 0 -31.5 9.5t-29.5 9.5q-14 0 -48 -91t-75 -91q-25 0 -45.5 70.5t-32.5 70.5q-10 0 -27.5 -3t-27.5 -3q-23 0 -66 17.5t-47 17.5q-35 0 -59 -74q-18 -55 -19 -88q0 -143 88 -144q27 0 133 54q23 0 90.5 -29 t98.5 -29q18 0 54 5.5t54 5.5q47 0 82 -82q25 -60 25 -109q0 -25 -19.5 -63.5t-19.5 -46.5q-4 -20 0 -56q6 -49 6 -55q0 -68 -74 -68q-68 0 -88 62l-24 119q-12 59 -51 59q-27 0 -87.5 -23.5t-82.5 -23.5q-6 0 -20.5 -2t-20.5 -2q-8 0 -26.5 2t-27.5 2q-23 0 -82 -84 t-88 -84t-37 6q-23 18 -30 84q-8 76 -19 92q-96 27 -102 31q-49 23 -59 80q-1 7 -1 40.5t1 94.5q1 29 1 53q0 61 -4 94q-10 31 -24 99q-12 6 -16 43q-2 18 -5 28z" />
<glyph unicode="F" horiz-adv-x="1089" d="M51 1030q0 10 37 105.5t41 126.5q1 8 1 20q0 29 -7 80q-5 31 -5 55q0 8 1 15q2 33 38 61.5t70 28.5q63 0 129 -2l129 -4q117 47 185 47q18 0 63 -17.5t68 -17.5q6 0 23.5 6t25.5 6l31 2q16 2 63 4l90 4q20 0 47 -36.5t27 -59.5v-24q-2 -18 -2 -27q0 -8 5 -25.5t5 -25.5 q0 -111 -63 -111q-20 0 -58.5 9.5t-58.5 9.5q-25 0 -74 -50.5t-61 -50.5q-23 0 -53.5 55.5t-53.5 55.5q-18 0 -73 -17q-68 -20 -87.5 -42.5t-19.5 -88.5q0 -80 57 -80q8 0 32 9.5t30 11.5q39 2 72 2q25 0 69.5 -14.5t69.5 -14.5q8 0 25.5 6.5t25.5 6.5q111 0 111 -156 q0 -86 -43 -117q-115 -25 -127 -31q-57 -25 -57 -81q0 -8 1 -17q3 -22 3 -42.5t-3 -39.5q0 -2 -11 -22.5t-9 -30.5q-25 -14 -47 -14q-20 0 -49 82t-33 84q-18 2 -45 6l-25 57q-10 25 -33 47q-39 -14 -39 -74q0 -29 23 -116q8 -55 8 -135q0 -125 -14 -164q-25 -31 -49 -95 q-6 -37 -13 -104q0 -2 7 -53q1 -7 1 -13q0 -32 -16 -61q-23 -41 -59 -41q-57 0 -80 92q-8 70 -18 140q-10 39 -37 38q-8 0 -24.5 -6t-22.5 -6q-55 0 -56 74v192q0 14 -8 43t-8 43q0 47 20.5 141.5t20.5 141.5q0 43 -21 98q-92 61 -92 121z" />
<glyph unicode="G" horiz-adv-x="1396" d="M51 739q0 20 29 150q-2 23 -2 59q4 23 12 64q0 90 4 112q10 57 53 99q57 43 154 141q8 0 45 4q14 10 19 18l75 54q16 8 80 8q6 0 5 -3t7 -3q-4 0 82 51q117 49 148 49q33 0 91 -26.5t91 -26.5q27 0 57 10q14 0 60 -2l45 -2q96 -4 172 -106q10 -14 10 -91q0 -6 -6 -51 q-4 -31 0 -53q20 -111 23 -111v2q0 -23 -26 -52t-48 -29q-57 0 -82 57q-20 90 -23 96q-20 68 -53 68q-14 0 -40.5 -5.5t-41.5 -5.5q-31 0 -88 17.5t-88 17.5q-33 0 -117 -26q-27 -8 -32 -27q-12 -25 -31 -80q-2 -2 -38 -3t-48 -17q-35 -47 -45 -109l-19 -121q0 -35 19 -71 l43 -86q6 -51 39 -146q12 -23 92 -57q88 -37 108 -55q4 -6 23 -31q10 -18 33 -19q23 0 53 50q27 10 74 30q8 12 8 58q0 84 -16 114q-18 -4 -56.5 -37.5t-60.5 -33.5q-14 0 -42 18t-32 31.5t-6 46.5q-51 49 -51 88q0 61 37 127q41 76 98 76q25 0 72 -12.5t71 -12.5 q4 0 13.5 3t13.5 3q8 0 25.5 -6t25.5 -6q27 0 81 15.5t81 15.5q47 0 74 -45q22 -37 22 -88v1q-1 0 -27 -175q-14 -100 -14 -185q0 -41 17.5 -123t17.5 -123q0 -35 -24.5 -67.5t-57.5 -32.5q-43 0 -80 78q-29 -2 -86 -22.5t-90 -20.5q-14 0 -39.5 6t-40.5 6q-14 0 -37.5 -10 t-27.5 -23q-10 -53 -17 -69q-10 -27 -41 -64q-29 -43 -106 -51q-35 37 -53.5 146.5t-34.5 128.5q-23 6 -60 20q-6 4 -38.5 33.5t-41.5 29.5q-12 0 -58 -47t-75 -47q-49 0 -82 76q-10 23 -34 113q-29 31 -68 88q-78 168 -78 237z" />
<glyph unicode="H" horiz-adv-x="1384" d="M35 1047q0 12 22 77q29 86 29 88q-1 20 -1 42q0 78 11 192q2 18 26.5 41.5t43.5 28.5q129 32 183 32h3q25 0 60 -35q29 -29 43 -55q0 -16 4 -41q11 -29 11 -72q0 -12 -1 -26q-2 -27 -8 -109q-1 -11 -1 -25q0 -28 3 -67q4 -16 53 -62t64 -46q20 0 80.5 41t95.5 41 q14 0 54 -14.5t56 -14.5q61 0 68 55v225q14 164 108 164q8 0 25.5 -3t26.5 -3q12 0 49 23.5t57 23.5q39 0 55 -49q27 -80 27 -102q0 -20 -10 -45l6 -6q0 -55 10 -170q10 -121 10 -161v-11l-28 -381q-1 -9 -1 -20q0 -44 13 -114q16 -94 16 -133q0 -88 -36 -118 q-43 -18 -43 -76q0 -14 4 -42t3 -42q0 -33 -18 -45q-61 -41 -94 -41q-31 0 -51.5 99t-28.5 102q-37 10 -73 22q-1 7 -1 15q0 32 17 92q25 84 27 112q8 102 8 250q0 80 -31 80q-8 0 -23.5 -3t-23.5 -3q-14 0 -47 11t-47 11q-20 0 -72.5 -78.5t-69.5 -78.5q-18 0 -44.5 67.5 t-47.5 67.5q-12 0 -46 -14.5t-48 -14.5q-10 0 -45 23q-22 -57 -22 -145q0 -14 1 -29q4 -78 7 -181v-27q0 -121 -33 -155q-10 -10 -70 -14q-24 -39 -24 -162v-10q-2 -20 -29 -41t-47 -21q-49 0 -55 139q-2 61 -27 91q-25 12 -66 41q-4 6 -4 71q0 25 4 82l4 58v-2q-1 0 -8 104 q-20 82 -20 104q0 29 9 88.5t9 87.5q0 45 -35 142z" />
<glyph unicode="I" horiz-adv-x="962" d="M74 205q0 6 5 20.5t5 18.5q-1 31 -1 55q0 48 5 68q16 55 80 73q8 2 113 25q38 24 38 124v5q0 100 -12 246q-10 29 -10 61q0 49 20.5 148.5t20.5 148.5q0 33 -21 37q-16 -14 -49 -72q-23 -39 -51 -39q-43 0 -47 70q2 49 2 102q-4 10 -39 43t-35 54q0 33 28 84t56 51 q6 0 21.5 -6t23.5 -6t26.5 3t27 3t38 14t39.5 14q8 0 52.5 -20.5t54.5 -20.5q4 0 11 -3t11 -3q45 0 137.5 30t139.5 30q154 0 154 -123q0 -20 -13 -60q-14 -45 -16 -61q6 -35 8 -105q-2 -20 -19.5 -48.5t-33.5 -28.5q-35 0 -56 16l-61 51q-16 -6 -53 19q-14 -20 -15 -58 q0 12 1 12q6 0 36 -219q2 -16 23.5 -66t21.5 -54q0 -23 -34.5 -84.5t-34.5 -73.5q0 -88 16 -121q23 -47 97.5 -61.5t82.5 -26.5q25 -35 25 -172q0 -37 -21 -78q-12 -12 -30 -43q-2 -45 -6 -59q-6 -41 -21 -51q-51 -37 -65 -37q-23 0 -63 75.5t-60 75.5q-14 0 -44 -11 t-44 -11q-8 0 -26.5 5t-29.5 5q-23 0 -51 -61q-22 -47 -22 -63q0 -181 -72 -181q-78 0 -78 145q0 -12 2 2v74q0 82 -33 84l-41 -23q-43 -24 -65 -24h-2q-20 0 -33.5 28.5t-13.5 53.5z" />
<glyph unicode="J" horiz-adv-x="1019" d="M53 369q0 27 32 55.5t58 28.5q25 0 75 -14.5t75 -14.5q14 0 45 14.5t43 14.5t44 -14.5t44 -14.5q18 0 49 18.5t38 36t15 53.5q8 170 9 226q0 35 -12.5 99.5t-14.5 90.5q4 72 8 199q-2 14 -18.5 28.5t-30.5 14.5t-59 -69.5t-66 -69.5q-27 0 -55 153q-4 14 -42 56.5 t-38 62.5q0 92 39 123q23 18 149 47q109 25 125 25q35 0 100.5 -22.5t98.5 -22.5q12 0 75.5 -9.5t65.5 -11.5q12 -8 21 -76q4 -31 4 -74q0 -77 -12 -190q-2 -18 -3 -47q0 -41 26 -119t26 -119q0 -23 -21 -67q-29 -61 -31 -70q-18 -53 -24 -158q0 16 2 5q2 -16 2 -50l2 -86 v-29q0 -200 -80 -200q-8 0 -29.5 9t-29.5 9q10 0 10 -2q0 -6 -49 -26q-76 -31 -90 -31q-6 0 -15.5 3t-15.5 3q-47 0 -68 -71q-8 -29 -22 -91q-41 -84 -66 -84h-16q-27 0 -62.5 79t-50.5 79q-6 0 -58 -28.5t-60 -28.5q-49 0 -80 32.5t-31 81.5q0 14 6 64q6 41 2 63 q-2 16 -20.5 67.5t-18.5 68.5z" />
<glyph unicode="K" horiz-adv-x="1269" d="M88 1077q6 55 6 101q0 29 -7 83t-7 80v13q0 171 106 172q12 0 38 -9.5t40 -9.5q18 0 45 25q6 -8 8 -25l9 -2q6 -4 18 -4q8 0 26.5 9.5t28.5 9.5q35 0 58 -64q18 -51 18 -94q0 -31 -11 -92.5t-11 -91.5q0 -88 36 -103q31 6 146 152q246 311 264 311q23 0 68 -6t67 -6 q16 0 47 6t47 6q31 0 67 -25.5t36 -54.5q0 -51 -11.5 -74.5t-50.5 -66.5q-80 -90 -114 -139l-21 -131q-16 -100 -59 -101q-12 0 -39 48t-31 53q-35 -29 -67 -70q-41 -53 -41 -84q2 -4 8 -25l100 -88q8 -20 33 -63q39 -47 115 -146q29 -47 77 -96q33 -31 65 -65.5t34 -75.5 q0 -8 3 -25.5t3 -25.5q0 -12 -47 -60h-8q-35 0 -86 -16q-16 -10 -39 -127q-18 -98 -80 -98q-37 0 -57 118q-2 6 -17 152q-6 27 -121 133q-23 33 -63 100q-86 -51 -92 -53q-29 0 -31 25q-8 96 -16 164q-2 10 -60 53q-33 25 -41 26q-25 0 -24 -53l41 -323q0 -33 -42 -119 t-43 -128t-6 -81q-8 -27 -32 -55q-29 -35 -52 -35q-31 0 -51 104q-12 68 -22 137q-10 18 -39 29q-43 16 -45 19q-6 35 -23 104q-18 39 -43 123v-1l2 95v-4q1 0 8 76q1 12 1 23q0 33 -9 57q-4 12 -41 57q-26 32 -26 64q0 14 57 288z" />
<glyph unicode="L" horiz-adv-x="1167" d="M80 1126v-1q4 0 61 180v8q2 12 2 43q2 119 9 184q12 0 24 -12q10 35 19.5 44t42.5 9q10 0 33.5 -6t35.5 -6q16 0 47 11t47 11q68 0 84 -106l4 -142q-1 -13 -1 -30q0 -30 4 -74q24 -81 24 -147v-5q0 -29 -5 -94q-4 -46 -4 -78q0 -12 1 -22q0 -14 4 -47t4 -51 q-16 -80 -16 -136q0 -114 60 -114h1q6 0 38 13t42 15h156q4 0 7 -5t9 -5q39 0 123 32t123 32q86 0 94 -68q-2 -20 -2 -47q0 -51 6 -109q2 -12 26.5 -63t24.5 -57q0 -27 -24 -88q-90 12 -140 12q-8 0 -34.5 -12.5t-32.5 -12.5q-8 0 -33.5 12.5t-34.5 12.5q-20 0 -71.5 -94.5 t-81.5 -94.5q-41 0 -64 132q-8 45 -37 86q-12 -2 -96 -9q-68 -4 -84 -16q-39 -29 -94 -137q-41 -80 -95 -80h-5q-25 33 -35 102q-10 80 -23 105q-4 10 -46 42.5t-44 47.5q8 156 12 344q0 27 -9 80t-9 80q0 202 2 202q1 0 2 -59q-2 82 -29 137q-23 43 -22 51z" />
<glyph unicode="M" horiz-adv-x="1552" d="M70 719q0 14 14 57q18 53 20 64.5t2 33.5q0 25 -4 49.5t-12 104.5q10 76 12 229q2 -2 11 134q2 27 37.5 82t58.5 55h63q23 0 70 37q4 -2 14.5 -13.5t18.5 -11.5q6 0 18.5 3t18.5 3q59 0 100 -43q14 -33 45 -92q20 -16 55 -49q23 -29 58 -80q25 -82 100 -246h29 q49 109 153 324q119 227 224 227q143 0 180 -14q96 -37 96 -260l-4 -80q-1 -22 -1 -41.5t1 -34.5l14 -184v-12q0 -41 -10 -158q-12 -115 -12 -172q0 -43 17.5 -126t17.5 -126q0 -68 -60 -96q-35 -16 -51 -35q-4 -4 -21 -111q-14 -88 -65 -88q-43 0 -57 88l-17 94 q-8 8 -65 25q-43 12 -56 41v561q0 29 45 264l-8 8q-37 -47 -39 -59q-20 -63 -39 -125q-2 -37 -8 -94q-10 -41 -49 -82q-37 -20 -76 -63q-35 -190 -104 -191q-14 0 -51 41l-37 41q-8 0 -29.5 -8t-32.5 -8q-25 0 -39 82q-2 18 -16 100q-27 23 -65 76l-15 71q-12 39 -37 62 q-10 -29 -10 -58l41 -385q0 -27 -11 -82t-11 -81q0 -23 11 -69t11 -69q0 -78 -29 -143q-38 -86 -97 -86q-8 0 -17 2q-20 37 -47 211q-8 53 -37 53q-10 0 -39 -12t-39 -12q-51 0 -41 -2q-41 8 -41 129q0 37 8 107.5t8 107.5q2 18 -24 45l-35 35q-14 23 -14 55z" />
<glyph unicode="N" horiz-adv-x="1417" d="M27 913q0 10 24 72q29 70 33 84q12 47 12 88q0 57 -12 160q-14 113 -16 158q66 47 75 47q8 0 23.5 -3t23.5 -3t28 6t28 6q12 0 36.5 -3t36.5 -3q14 0 40 6t40 6q86 0 140 -64l88 -137q12 -18 143 -157q74 -78 102 -170q2 -29 21 -76q14 -16 68 -47q18 -23 57 -68 q20 41 20 76q0 4 -27.5 62.5t-29.5 74.5q-2 14 -2 32t2 40l8 80q1 11 1 23q0 82 -44 257q0 27 53 60q43 26 59 26h1q16 0 47 -9t47 -9q10 0 40 11t40 11q47 0 78.5 -34.5t31.5 -81.5q0 -41 -17 -123t-17 -123q0 -63 12 -166q2 -25 23.5 -82t21.5 -82q0 -31 -25 -70 q-33 -53 -38 -65q-16 -37 -17 -115q0 -98 -4 -119q0 -8 -17.5 -23t-19.5 -24q-2 -45 -10 -135q-2 -10 -18.5 -26.5t-24.5 -16.5t-8 2v2q-2 2 -8 2q-25 0 -60 -91t-67 -91q-49 0 -72 47q-8 16 -9 65.5t-7 65.5q-23 68 -70 146q-12 10 -37 34q-33 41 -61 113q-18 33 -43 33 q-6 0 -40 -17.5t-42 -17.5q-51 0 -64 111q0 57 -2 112q-25 29 -70 82q-29 43 -88 127q-20 -16 -20 -57q0 -39 14 -105q16 -80 19 -104q8 -76 8 -160q0 -94 -16 -162q-6 -25 -23 -100q-2 -12 -2 -28t2 -37l6 -56q0 -43 -26 -90q-29 -37 -66 -37q-39 0 -64 86q-27 98 -40 111 q-16 20 -107 41q-12 39 -18 115q-10 129 -13 141q6 54 6 154v53q0 49 -20 73q-57 72 -57 86z" />
<glyph unicode="O" horiz-adv-x="1482" d="M29 684q0 43 37.5 143.5t37.5 143.5q-4 8 -22 47q-2 4 -2 41q0 72 88 198q35 51 68 68q8 4 53 31q61 25 174 90q27 41 47 41q8 0 11 -6t9 -6q8 0 50.5 20.5t50.5 20.5q12 0 45 -13l12 -12q12 0 36 -2t36 -2q20 0 70.5 17.5t74.5 17.5q57 0 103 -29l90 -57q33 -14 96 -52 q25 -18 98 -151q37 -43 90 -135v-101q0 -49 25 -144t25 -144t-43 -92.5t-46.5 -60.5t-11.5 -126q-4 -70 -14 -94q-14 -39 -62 -94q-61 -74 -79 -101l-29 -114q-23 -90 -72 -90q-27 0 -74 59q-23 29 -65 84q-27 16 -111 16q-90 0 -116 10q-10 2 -42 21.5t-42 19.5l-63 -81 q-64 -82 -109 -82q-53 0 -64 69q-4 23 -20 203q-8 80 -115 139q-49 27 -59 45q-6 37 -23 101q-4 16 -66.5 45.5t-69.5 52.5t-7 45zM461 764q0 -70 8 -107q20 -92 76 -135q35 -6 47 -10q33 -10 37 -25q29 -106 98 -106q18 0 73.5 14.5t67.5 22.5q152 109 152 338q0 43 -2 78 v18q0 29 4 68l6 51q0 29 -12 65q-14 47 -37 47q-8 0 -6 -3t-6 -3q-70 0 -115 60q-20 27 -31 34l-49 -86q-42 -73 -64 -73h-1q-49 0 -64 57q-20 82 -33 96q-18 -6 -47 -14q-6 -16 -16 -41q-33 -41 -72 -117q2 -39 2 -106q-16 -113 -16 -123z" />
<glyph unicode="P" horiz-adv-x="1236" d="M53 985q0 39 33 125t33 125q0 25 -15.5 71t-15.5 70q0 27 22.5 65t45.5 46q106 39 219 39q23 0 77 -23.5t76 -23.5q14 0 42 6t42 6q123 0 129 -2q14 -4 72.5 -39t63.5 -35q20 0 61 8.5t61 8.5q61 0 88 -21q53 -41 97.5 -149.5t44.5 -180.5q0 -145 -58 -237 q-53 -84 -184 -160q-53 -31 -199 -49q-53 -86 -92 -86q-16 0 -60 28.5t-63 28.5q-45 0 -57 -20q-9 -15 -8 -64q0 -42 6 -110q0 -137 -6 -164q-18 -78 -96 -125q0 -55 -19 -113q-25 -76 -67 -76q-51 0 -58 99q0 25 -6 108q-14 37 -49 54l-53 16q-12 23 -12 61q0 14 2 31l8 90 q-10 -4 -11 8l9 11q-2 20 -4 82v21q0 58 8 159q8 99 10 99v-5q0 53 -18 104q-4 12 -51.5 55.5t-47.5 57.5zM522 946q2 0 8.5 3t12.5 3q8 0 16 -26q16 -8 33 -8q90 0 119 14q41 20 77 92q43 84 43 129q0 14 -12 37.5t-24 23.5q-35 0 -69 -34.5t-54 -34.5q-39 0 -64 33 q-6 8 -37 67q-49 -37 -49 -63v-236z" />
<glyph unicode="Q" horiz-adv-x="1501" d="M20 899q0 66 56.5 182.5t60.5 169.5q23 41 78 105q10 4 107 41q18 6 89.5 59t75.5 53t8.5 -2t6.5 -2q-4 0 28 15q59 26 100 26h3q10 0 35.5 -12t36.5 -12q33 0 97 23.5t97 23.5q8 -2 43 -8q10 -8 29 -21q47 -6 123 -33q53 -31 145 -121q10 -27 33 -69q76 -72 100 -105 q51 -66 51 -129l-14 -77q-14 -78 -14 -140q0 -51 23.5 -150.5t23.5 -150.5q0 -63 -43 -88q-31 -2 -76 -10q-18 -6 -51 -61q-39 -63 -51 -76q-39 -35 -119 -107l61 -71q61 -76 71.5 -98.5t20.5 -116.5q10 -86 11 -117q0 -45 -25 -96q-29 -61 -67 -62q-12 0 -25 6 q-14 16 -24.5 59.5t-20.5 57.5q-43 -25 -76 -25q-80 0 -94 119q-4 37 -19 43q-53 23 -98 45q-54 46 -54 95q0 5 1 10q-10 -2 -19 -2q-16 0 -36.5 22.5t-26.5 24.5q-135 43 -174 94q-33 -6 -45 -61q-20 -88 -23 -95q-20 -49 -75 -49t-64 33q-2 7 -2 24q0 46 12 160 q0 53 -24 113q-18 14 -49 43q-16 31 -58 90q-55 -18 -49 -18q-18 0 -43 18t-27 34.5t-2 170.5q0 100 -32 160q-6 14 -7 65zM446 666q23 -117 113 -129l8 -9h19q6 12 6 37q0 27 -23 68q-25 49 -28 67l82 82q43 43 88 43q39 0 77 -57q12 -18 45 -39.5t39 -30.5l31 -43 q16 -23 37 -22q6 0 21 8l10 6q18 195 20 195v-2q0 -4 -41 153q2 29 2 60q0 47 -30 77q-39 -169 -94 -169h-1q-16 0 -31.5 16t-15.5 33v182q0 33 -41 33q-8 0 -31.5 -15.5t-29.5 -15.5q-18 0 -37 35q8 -37 8 -68q0 -112 -77 -112h-1q-14 0 -57 28q-33 -63 -51 -112 q-4 -25 -17 -72q6 -6 7 -64q0 -55 -7 -163z" />
<glyph unicode="R" horiz-adv-x="1275" d="M31 952q0 12 28.5 88t32.5 97q7 41 7 79q0 15 -1 31l-12 148v9q0 55 66 89q33 16 45 16q8 0 12 -6t12 -6q23 0 70 6t69 6q14 0 44 -6t45 -6q25 0 69 23l19 -17q18 6 41 6q47 0 129 -26q10 -4 54 -30t50 -26q-6 0 45 21q4 2 86 2q25 0 116 -73.5t109 -102.5 q10 -16 24.5 -69.5t14.5 -74.5q0 -8 -10 -47l-12 -47q-23 -88 -45 -112q-162 -113 -162 -150q0 -8 31.5 -35.5t38.5 -44.5q6 -57 36 -145q45 -59 93 -119q44 -69 44 -132q0 -8 -1 -15q-2 -23 -2 -58q0 -25 9 -71.5t9 -71.5q0 -66 -61 -66q-27 0 -51.5 26t-28.5 52v37 q0 23 -13 33q-25 27 -135 57q-63 -92 -92 -92q-43 0 -63 111q-4 20 -15 143q-2 23 -35 55l-32 33q-8 10 -16.5 45t-20.5 45q-20 18 -75.5 47t-78.5 29t-32 -45q-5 -27 -5 -46q0 -13 2 -22q4 -12 15 -47q-2 -109 -2 -164t2 -59q-4 -35 -11 -47q-8 -27 -28 -35 q-45 -18 -59.5 -29.5t-21.5 -61.5t-18 -58q-29 -23 -49 -23q-41 0 -55 80l-16 90q-27 39 -58 39q-8 0 -6 -2t-6 -2q-50 0 -50 118q0 17 1 35q2 46 2 80q0 56 -6 78q-15 50 -15 111v8q0 25 8.5 74t8.5 75q0 23 -10 47q-78 84 -78 121zM492 1085q0 -14 7 -42.5t7 -43.5l14 7 q4 -2 23 -43q12 -27 49 -27h20q35 0 187 90q14 28 14 55q-4 20 -18 35l-88 -69q-41 0 -54 49q-6 39 -10 80q-18 -20 -55 -46q-21 -8 -64 -8h-18q-14 -27 -14 -37z" />
<glyph unicode="S" horiz-adv-x="1247" d="M57 1034q0 39 72 166q117 205 182 234q18 8 78 10t80 18q51 57 55 60q36 32 70 32h2q27 0 78 -17t78 -17q2 0 67 2l66 2h7q47 0 137 -24q97 -26 133 -49.5t36 -113.5q0 -25 -12 -71q-12 -53 -15 -72q1 -16 1 -38q0 -44 -5 -114q-12 -55 -57 -55q-29 0 -72 107 q-8 20 -49 104q-14 2 -31 -27q-27 -45 -49 -67q-66 0 -73 61q-14 102 -23 115q-66 -4 -184 -14q-23 -20 -54 -37q-73 -38 -73 -77q0 -30 49 -59.5t80 -29.5q8 0 8 3t6 3q18 0 65.5 -61.5t51.5 -61.5t55 20.5t78 20.5q18 0 96 -55q63 -45 76 -55q68 -55 78 -172 q-2 -100 -2 -201q0 -14 18 -121l15 -84q0 -96 -46 -96q-18 0 -60 23.5t-56 39.5q-14 -10 -79 -57t-79 -47q-6 0 -8 3t-8 3q-33 0 -60 -68l-28 -98q-29 -57 -82 -57q-51 0 -66 57q-23 96 -29 104q-35 55 -137 56q-8 0 -22.5 -3t-21.5 -3t-6 -3t-5 -3q-18 0 -121 53 q-16 0 -53 -41t-66 -41q-67 0 -67 74q0 18 6 52t6 52q-1 62 -1 123.5t1 122.5q2 16 25.5 41.5t40.5 25.5q6 0 32.5 -13t32.5 -15q49 -6 129 -33q10 -6 76 -74q45 -47 84 -47q18 0 65.5 20.5t65.5 20.5q8 0 28.5 -8t28.5 -8q29 0 67 33.5t38 62.5q0 39 -33 53q-61 23 -188 66 q-53 18 -103 30l-8 2q-8 4 -37 25t-47 21q-6 0 -46 -18.5t-48 -18.5q-51 0 -68 26q-4 10 -16 58q-8 31 -47 53q-57 33 -60 35q-12 16 -27.5 71.5t-15.5 79.5z" />
<glyph unicode="T" horiz-adv-x="1140" d="M33 1378q0 135 98 135q6 0 20.5 -6t23.5 -6t30.5 -6t32.5 -6q23 0 67.5 15.5t67.5 15.5q18 0 64 -15.5t67 -15.5q37 0 115.5 44t80.5 44q29 0 92.5 -21.5t90.5 -23.5q61 -4 147 -6q86 -12 111 -76q16 -41 16 -74q0 -113 -78 -159q-14 0 -47 -5q-41 -137 -86 -137 q-14 0 -41.5 73t-52.5 73q-63 0 -68 -45q-5 -50 -5 -85q0 -43 7 -65q6 -20 7 -33q0 -12 -9 -18l-8 -8l8 -6q4 -23 4 -95q0 -2 -4 -12t-4 -16q0 -84 21.5 -252t22.5 -252q0 -115 -50 -160q-25 -14 -61 -51q1 -9 1 -20q0 -23 -4 -56q-43 -153 -99 -153h-1q-31 0 -55.5 137 t-38.5 137q-6 0 -17.5 -3t-17.5 -3h-24q-12 6 -25 37q-4 10 -4 51v31l2 100q-2 49 -14 123l-15 84q0 23 24 80t24 80q0 10 -18.5 40.5t-20.5 42.5q-10 39 -17 281q2 23 2 45q0 27 -20 33q-104 31 -139 31q-4 0 -33 -58.5t-56 -58.5t-58.5 25.5t-41.5 52.5q-6 16 -6 88 q0 18 -4 54t-4 54z" />
<glyph unicode="U" horiz-adv-x="1363" d="M61 969q0 12 18.5 69.5t21.5 73.5t3 43q0 29 -4 85t-4 85q0 43 29 158q14 31 39 47q4 0 11 -8.5t15 -8.5h46q14 0 51 14.5t51 14.5q59 0 119 -45l30 -217q18 -131 19 -141q0 -33 -8.5 -95.5t-8.5 -95.5v-217q0 -76 52 -153q55 -88 127 -89q25 0 123 33q27 0 79 21 q33 25 52 153q-2 4 -2 54q0 53 2 151q-2 12 -23 41q-27 37 -31 44t-4 63l17 73q16 74 16 113q0 20 -3 61t-3 62q0 92 45 151q162 33 221 33q6 0 18.5 -6t18.5 -6q33 0 59.5 -33t26.5 -67v-185q0 10 -2 -14.5t-2 -65.5q0 -70 -6 -247q-7 -131 -8 -131v4q0 -33 14 -94.5 t14 -94.5q0 -20 -18 -86l-27 -94q-8 -29 -8 -88q0 -16 2 -48t2 -48q0 -70 -29 -117q-47 0 -92 53l-43 51q-4 0 -27.5 -21.5t-29.5 -23.5q-45 -18 -86 -18q-12 0 -38 6t-38 6q-6 0 -21.5 -6t-23.5 -6t-26.5 6t-28.5 6q-49 0 -78 -139q-45 -92 -94 -119q-12 16 -66 166 q-25 109 -59 125l-103 16q-94 14 -137 125q-8 16 -51 197q-16 68 -16 252q0 6 -2 26v25q0 16 -45.5 59t-45.5 62z" />
<glyph unicode="V" horiz-adv-x="1361" d="M6 1403q0 45 37 86q14 16 82 16l20 17q8 0 24.5 -8.5t23.5 -8.5q6 0 46 17.5t48 17.5q133 0 149 -139q10 -90 27 -123l90 -107q61 -74 61 -116q0 -12 -45 -86q-14 -25 -14 -51q0 -4 18 -48q25 -59 89 -215q12 -29 40 -28q37 0 84 202q31 84 66 189q8 27 8 101.5t6 101.5 q29 133 107 295q4 8 27.5 21t31.5 13q29 0 88.5 -8t87.5 -8q6 0 11.5 6t12.5 6t25.5 5t26.5 5q10 -4 84 -24q0 -12 6 -36t6 -36q0 -45 -53 -127q-57 -88 -59 -98t-12.5 -42t-10.5 -40q0 -47 15.5 -137t15.5 -137q0 -53 -72 -54q-35 0 -65 82q-12 -10 -27 -33 q-14 -68 -43 -186l-41 -110q-27 -72 -31 -117q-8 -86 -82 -185q-41 -29 -112 -88q-14 -49 -35 -108q-35 -102 -84 -103q-20 0 -60 93.5t-49 97.5h-6q-30 0 -77 16q-14 39 -43 105q-39 53 -103 164q-4 16 -43 141q-92 207 -117 375q-16 27 -34 26q-6 0 -36 -17t-36 -17 q-41 0 -41 71q0 -13 1 -13q1 -1 5 73q6 104 6 116q0 84 -28 150q-16 37 -17 45z" />
<glyph unicode="W" horiz-adv-x="1974" d="M70 1229v15q0 57 14 77q88 119 100 131q68 80 127 98q-6 12 8 13q6 0 8.5 -6.5t8.5 -6.5q4 0 12 3t12 3q25 0 60 -90v-22q0 -36 4 -94q10 -33 22 -95v-18q0 -43 7 -111q27 -23 65 -75q14 -39 25 -168q8 -109 39 -140q59 42 59 163v16l-2 69q25 45 61 129q27 119 97 353 q8 18 65.5 41.5t81.5 23.5q6 0 41 -26.5t45 -26.5q14 0 52 18.5t53 18.5q66 0 77 -82v-90q92 -123 93 -203q0 -18 -11.5 -55t-11.5 -52q0 -23 23 -73q23 -59 26 -80q16 -96 33 -187q2 -14 59 -28q37 35 43 104q4 53 21 221q12 145 49 265q0 61 16 180q6 25 41 54.5t60 29.5 q16 0 50 -5t50 -5t55 11t58 11q20 0 48 -39.5t28 -62.5q0 -33 -17.5 -96.5t-17.5 -96.5q0 -25 12 -75t12 -74q0 -98 -51 -99q-4 0 -11 2t-11 2q-12 0 -32 -18t-24 -31q-23 -156 -51 -237q-18 -55 -65 -185q-12 -102 -44 -286q-10 -33 -34 -80q-33 -61 -49 -62q-6 0 -27 19 l-37 33q-29 -14 -31 -99q-4 -104 -16 -139q-23 -59 -76 -59q-51 0 -65 77q-6 121 -9 125q-6 100 -41 101q-6 0 -55 -23.5t-55 -23.5q-33 0 -35 49q6 74 8 217q-20 35 -49 110q2 30 2 74t-2 103l-70 122q-10 25 -15 78.5t-13 77.5q-6 0 -19 -16q-14 -61 -63 -211v-39 q0 -14 -25 -94q-12 -39 -45 -152q-59 -199 -139 -235q-14 -6 -64 -17q-20 -2 -26 -18q-4 -29 -14 -88q-8 -27 -37 -49.5t-58 -22.5q-49 0 -61 31q-4 82 -33 217q-6 27 -39 74t-39 71q-12 47 -37 228q-47 12 -139 41q0 31 14.5 90t14.5 90q0 27 -27 213q0 20 -15.5 63 t-15.5 66q0 14 5 22q-14 8 -41 23z" />
<glyph unicode="X" horiz-adv-x="1370" d="M80 268q0 49 127 191q12 14 12 41q0 10 -2 29.5t-2 29.5q0 33 18 51q39 18 111 62q8 6 47 98q18 23 49 70q37 74 37 112q0 37 -131 172q-123 127 -160 146q-20 10 -45.5 39.5t-25.5 48.5q0 61 88 112q68 39 119 48q-14 -2 59 -2q10 0 28.5 5t26.5 5q29 0 71 -14.5 t50 -34.5q-1 -7 -1 -16q0 -31 11 -83q6 -12 113 -106q8 -12 35 -80h28q14 16 27.5 53t24.5 51q43 39 120 129l43 93q2 8 45.5 25.5t55.5 17.5q18 0 53 -9.5t53 -9.5t55 12.5t56 12.5q90 0 90 -86q0 14 -4 14q-6 0 -31 -78q-37 -119 -39 -135q-2 -23 -2 -102q-10 -82 -49 -82 h-18q-33 0 -57.5 27.5t-24.5 60.5q-35 -27 -47 -74q-16 -59 -25 -72l-41 -57q-41 -94 -41 -127q2 2 8 2q-8 0 -4 -2q4 -4 2 -6q45 -53 166 -168q16 -14 23 -57l6 -43q4 -8 47 -47q90 -80 90 -154q0 -31 -25 -92q-2 -6 -41.5 -19.5t-50.5 -13.5q-6 0 -20 3t-23 3 q-23 0 -43 -16q-6 -178 -104 -197q-29 12 -43 133q-4 43 -14 158q-12 14 -37 45q-25 51 -31 59q-18 31 -43 52q-37 31 -43 43q-12 23 -31 168h-12q-37 -113 -78 -168q-37 -41 -96 -129q-8 -51 -45 -148q-2 -4 -80 -43q-37 -14 -121 -49q-8 -45 -16 -88q-18 -53 -76 -53 q-33 0 -47 80q-6 33 -15 90q-25 25 -73 28q-37 4 -37 41z" />
<glyph unicode="Y" horiz-adv-x="1282" d="M20 1348q0 100 103 120q4 0 22.5 13.5t24.5 13.5q12 0 43 -11t43 -11q23 0 64.5 11t64.5 11q43 0 94 -119q14 -33 58 -133q12 -12 79 -65q57 -45 70 -45q10 0 37 10t27 18q10 33 34 94q51 88 86 199q6 20 72 92q45 0 129 10l35 23q35 23 51 23q43 0 80 -19q47 -22 47 -61 q0 -18 -8 -49q-10 -37 -12 -50q-4 -35 -4 -95v-42q1 -27 1 -51q0 -57 -4 -88t-38 -31q-33 0 -62 32t-33 32q-51 -51 -63 -86q-23 -59 -115 -158q-8 -29 -33 -82q-4 -6 -53 -70q-35 -45 -41 -75v-193l2 -293q-27 -27 -61 -76v-163q0 -25 -35 -57.5t-59 -32.5q-49 0 -66 94 l-8 100q-6 27 -39 39q-23 6 -45 14q-33 29 -47 82v39q0 31 14 92.5t14 91.5q0 18 -14 54.5t-14 44.5q0 27 14 77t14 76q0 80 -49 156q-35 31 -96 88q-25 57 -74 133q-14 23 -47 35q-12 -10 -47 -57q-18 -25 -49 -25q-47 0 -57 31q0 55 -15 158q-35 92 -35 131z" />
<glyph unicode="Z" horiz-adv-x="1236" d="M66 1399q0 127 260 127q49 -25 192 -25q25 0 234 19q8 0 25.5 8t23.5 8q23 0 66.5 -8t66.5 -8q29 0 85 20.5t85 20.5q65 0 65 -94q0 -40 -4 -64l-6 -37v-160q0 -18 11.5 -54t11.5 -54q0 -27 -22.5 -57.5t-47.5 -30.5q-23 0 -55 30l-35 29q-27 0 -55 -45q-23 -53 -80 -147 q-20 -25 -62 -56q-49 -35 -65 -51q-35 -47 -107 -139q-80 -75 -80 -114v-5q33 -16 68 -16q2 0 50 26.5t79 26.5q23 0 65 -12.5t64 -12.5q27 0 80 20.5t80 20.5h-1q0 -1 77 -14q12 -12 24 -47q10 -240 10 -309q0 -131 -71 -132q-39 0 -78 60l-37 57q-8 0 -26.5 -6t-26.5 -6 q-14 0 -51 14.5t-52 14.5q-35 0 -41 -58q-4 -41 -8 -53q-8 -27 -37 -27q-78 0 -125 174h-139q-8 -4 -24 -34q-8 -31 -29 -84q-31 -82 -70 -82q-53 0 -69 98q-10 57 -15 92q-12 31 -69 31q-78 2 -117 55q-14 20 -14 86q0 86 36 152q14 25 70.5 70t73.5 65l192 246 q18 49 23 55q10 25 108 119q26 31 26 70q0 8 -1 16q-4 4 -53 13t-62 9q-4 0 -36.5 -15t-43.5 -15q18 0 -24 2l-43 2q-35 -2 -60 -39q-8 -12 -32 -66q-31 -68 -74 -68q-5 0 -10 1q-35 51 -82 159v-1q2 0 2 112q0 31 -6 68z" />
<glyph unicode="[" horiz-adv-x="1290" d="M643 733q0 10 20.5 56.5t20.5 56.5v303q0 135 51 170q20 14 205 55q2 -6 12 -16q61 16 127 16q20 0 58.5 -18.5t48.5 -34.5q20 -31 20 -100q29 -131 29 -160q0 -33 -16 -64q-20 -39 -50 -39q-25 0 -41 43q-25 61 -26 64q-33 -35 -51 -35t-31.5 28.5t-28.5 28.5 q-27 0 -26 -26v-41q0 39 9 -42t7 -110q-4 -104 8 -206l21 -173q-4 -20 -2 -59q20 -61 32 -61q10 0 31 6t31 6q78 0 96 -72q6 -25 6 -139q0 -176 -92 -176q-41 0 -47 59q-2 0 -4 3t-10 3q-10 0 -48 -73.5t-69 -73.5q-72 0 -72 78q0 45 -18 55q-61 6 -84 14q-47 16 -51 56 q-16 203 -7 350q10 139 9 145q-23 25 -60 76q-8 16 -8 47z" />
<glyph unicode="\" horiz-adv-x="1013" d="M152 1462q0 -55 47 -145q14 -27 75 -139q23 -43 48 -150l34 -156l62 -159q45 -117 45 -197q0 -16 -4 -37q-6 -27 10 -94q20 -88 74 -88q20 0 49 27q29 -31 47 -166q10 -92 20 -185q4 -41 70 -110q18 -6 45 -29q10 -16 19.5 -88t21.5 -96q27 -53 80 -53q61 0 78 88 q8 47 18 108q33 20 92 76q2 8 2 27q0 45 -26 104q-23 47 -47 96q-27 57 -27 105q0 20 6 58t6 58q0 43 -36 89q-55 70 -60 75q-35 61 -67 162l-62 184q-6 16 -38 52t-40 51q-18 35 -38.5 126t-34.5 130q-61 166 -209 459q-12 -14 -29 -15q-12 0 -33.5 7.5t-34.5 7.5 q-70 0 -116.5 -55.5t-46.5 -127.5z" />
<glyph unicode="]" horiz-adv-x="1630" d="M977 1061q0 51 27 160q2 6 4 45q4 59 67 90q37 18 58 18q23 0 64.5 -8t64.5 -8q6 0 5 8t5 8q35 0 108.5 -19.5t102.5 -35.5q47 -29 47 -145q0 -12 -4 -134q-4 -127 2 -194q2 -14 21.5 -57.5t19.5 -55.5q0 -35 -29 -67q-35 -39 -41 -56q-8 -25 8 -145q8 -57 2 -113 q-6 -57 -10 -86q6 -70 2 -151q-2 -37 -55 -54q-43 -12 -86 -22q-6 -10 -12 -59q-4 -41 -20.5 -54.5t-49.5 -13.5q-35 0 -69.5 73.5t-47.5 73.5q-2 0 -21.5 -32.5t-39.5 -32.5q-94 0 -94 176q0 109 8 139q18 72 94 72q10 0 30.5 -6t30.5 -6q25 0 31 47v67q0 12 21 185 q14 123 8 194q-2 20 8 96l8 62v47q-4 20 -24 20q-16 0 -27.5 -28.5t-32.5 -28.5q-16 0 -53 35q-33 -106 -68 -107q-63 0 -63 103z" />
<glyph unicode="a" horiz-adv-x="1091" d="M16 465q0 51 37 139q18 25 53 82q2 23 11 57q18 53 63 95.5t96 42.5q12 0 39 -8.5t39 -8.5q14 0 51 32t47.5 37t90.5 15q105 14 105 77q0 7 -1 15q-51 29 -67 29q-14 0 -49 -12.5t-50 -12.5q-18 0 -24 7l-11 -13h-1q-18 0 -62 -66q-45 -68 -70 -67q-61 0 -71 111 q-12 0 -38 -9.5t-36 -9.5q-59 0 -59 117q0 84 41 123q31 29 120 55q76 23 70 23q31 0 82 -12q59 -12 82 -15q21 1 45 1q61 0 147 -7q182 -14 222 -88q14 -27 18 -104q4 -84 18 -119q25 -59 54 -133q20 -53 20 -88q0 -25 -22 -54q-31 -41 -35 -47q-8 -14 -8 -76 q0 -41 18 -123.5t18 -123.5q0 -100 -65 -101q-41 0 -137 82q-18 0 -74.5 -34.5t-75.5 -34.5q-16 0 -51 11t-51 11q-6 0 -22.5 -15.5t-22.5 -17.5q-18 -8 -49 -8h-64q-8 0 -3 -5t-3 -5q-10 0 -65.5 25.5t-65.5 25.5l-49 -57q-51 -59 -68 -60q-55 0 -55 60q0 20 8 59t8 60 q0 41 -53 92q-25 25 -25 51zM414 502q29 -12 47 -13q8 0 25.5 3.5t25.5 3.5q16 0 42 -23.5t44 -23.5q14 0 53 29.5t51 45.5q11 11 11 62q0 23 -35 53q0 29 -29 66q-23 -55 -31 -70q-20 -37 -51 -53h-16q-23 12 -31 22q-10 18 -18 37q-20 35 -35 35q-41 0 -51 -82 q0 -45 -2 -92z" />
<glyph unicode="b" horiz-adv-x="1214" d="M33 1090q0 37 33 100q22 44 22 178v33v25q0 107 16 151q2 6 48 51q10 8 28 8q16 0 48 -8t48 -8q20 0 59.5 11t59.5 11q31 0 53.5 -20t22.5 -51q0 -23 -14.5 -68t-14.5 -67q0 -12 21 -176v-54q0 -39 12 -55q20 4 65.5 31.5t57.5 27.5h16q6 0 33 -12t35 -12q14 0 73.5 26.5 t73.5 26.5q41 0 64 -27q20 -33 76 -90q43 -16 127 -59q0 -43 22 -49q14 -41 19 -82q0 -47 8 -139q35 -115 35 -140t-17 -61q-18 -43 -39 -43q-45 0 -51 -2q-55 -16 -65 -80q-6 -35 -13 -92q-2 -20 -34 -27q-2 -8 -11 -20q-43 -12 -129 -62q-30 -25 -30 -80v-10 q-57 -72 -89 -72q-10 0 -36.5 61.5t-53.5 61.5q-18 0 -67 -23.5t-68 -23.5q-6 0 -8 3t-8 3q-61 0 -81 -63q-20 -182 -67 -182q-37 0 -68.5 122.5t-49.5 122.5q-8 0 -24.5 -6t-23.5 -6q-29 0 -55 33q0 2 6 106l4 70v-8q-1 0 -8 80q-13 166 -13 226q0 15 1 24l16 180 q0 61 -14 86q-51 92 -51 119zM449 858q0 -16 20 -60t20 -63q0 -31 -17 -90t-17 -90q0 -6 3 -17.5t3 -17.5q63 10 76 10q18 0 48.5 -43t39.5 -43q10 0 40.5 75t55.5 81q66 14 80 25q22 16 22 75q0 55 -41 138q-53 108 -132 108h-1q-12 0 -35 -12q8 -90 9 -117 q-23 -16 -43 -16q-45 0 -86 127q-12 2 -31 -8q-14 -29 -14 -62z" />
<glyph unicode="c" horiz-adv-x="1167" d="M49.5 633q20.5 35 22.5 43q27 82 100 258q8 51 45 151q25 41 105 70q43 16 122 39l27 23q27 23 43 22q10 0 31.5 -6t32.5 -6q20 0 64 20.5t65 20.5l202 -56q27 -8 105 -47q27 -14 58.5 -51.5t31.5 -64.5q0 -8 -14 -50q-14 -47 -17 -57q-4 -20 2 -29q0 -31 -16 -67 q-18 -45 -45 -45q-4 0 -12.5 -3t-12.5 -3q-29 0 -39 39q-16 61 -28 79q-6 8 -78 52q-20 -16 -29 -115q-6 -72 -10 -88q-16 -61 -66 -62q-43 0 -48 101.5t-9 116.5q-53 53 -86 53q-72 0 -131 -174q-45 -133 -45 -195q0 -14 10 -51t19 -43q25 -18 67 -39q193 -31 244 -31 q31 0 96.5 61.5t87.5 61.5q66 0 107 -61q36 -52 36 -117v-4q0 -33 -18 -74q-20 -49 -49 -49q-20 0 -31 10q-4 2 -41 49l-94 -108q-53 -51 -113 -51q-31 0 -86 17t-80 20q-59 -113 -81 -113q-6 0 -18.5 -2t-18.5 -2q-43 0 -64 37q-20 70 -37 100q-31 59 -69 76q-68 27 -74 33 q-37 20 -53 57q-10 23 -25 90q-6 29 -76 57q-30 22 -30 63q0 9 20.5 44z" />
<glyph unicode="d" horiz-adv-x="1181" d="M47 676q0 86 80 223q10 18 41 70q20 72 31 96q49 129 157 129q31 0 91.5 -12.5t91.5 -12.5q14 0 41.5 9.5t42.5 9.5q14 0 48 -14.5t46 -14.5h26q16 57 17 82q0 33 -8 33q-2 0 -7 -2q-20 195 -20 209q0 75 97 75h3q6 0 20.5 -3t20.5 -3q10 0 27.5 3t31 3t43 8.5t46.5 8.5 q76 0 76 -107q0 -29 -9.5 -85t-9.5 -85q0 -104 12 -264q2 -20 15.5 -64t13.5 -69q0 -27 -14 -61l-33 -80q-6 -14 -6 -47q0 -29 6 -64q0 -2 -6 -6t-6 -12q0 -12 8 -39t6 -43t-1 -36q0 -58 13 -142q20 -127 21 -176q0 -139 -49 -140q-39 0 -58 31q-39 63 -43 68 q-76 -45 -90 -46q-43 0 -104 76q-18 -12 -58 -28q-100 -18 -213 -19q-14 0 -48 14.5t-48 14.5q-16 0 -33 -70q-18 -78 -39 -92q-49 -37 -65 -37q-10 0 -35 12q-2 27 -20 230q-2 25 -19 39q-41 -41 -55 -41q-20 0 -43 32.5t-23 55.5q0 29 12.5 82t12.5 82q0 37 -17.5 109.5 t-17.5 109.5zM385 573q0 -94 119 -106q16 -35 47 -92h33q25 82 114 82q4 0 13.5 -3t13.5 -3q18 0 41 106q18 88 18 113q0 18 -6 57t-6 57q0 27 10 39h-47q-2 72 -49 72q-12 0 -32.5 -85t-49.5 -85q-14 0 -55 56.5t-70 56.5q-68 0 -86 -103q-8 -45 -8 -162z" />
<glyph unicode="e" horiz-adv-x="1167" d="M47 471q0 109 66 350q59 219 88 258q55 76 106 95q33 10 127 43q39 12 45 22q6 0 18.5 -3t18.5 -3q10 0 31.5 8t30.5 8q18 0 54 -11t54 -11q14 0 40 3t40 3q59 0 186 -105q57 -31 99 -141q36 -95 36 -172q0 -170 -43 -188q-33 -14 -92 -15q-12 0 -33.5 3t-33.5 3 q-14 0 -36 -55t-26 -59q-14 -8 -84 -19q-10 8 -24 31q0 23 -4 59q-6 55 -33 56q-6 0 -42 -18.5t-46 -18.5q-16 0 -50 20.5t-44 20.5q-35 0 -35 -55q0 -63 45 -78q39 -12 57 -21l19 -39q18 -41 34 -41q18 0 62.5 20.5t62.5 20.5q14 0 48 -14t47 -14q20 0 99 44t93 44 q27 0 46.5 -23.5t19.5 -52.5q0 -131 -21 -250q-6 -37 -41 -37q-29 0 -64.5 32t-52.5 32q-43 0 -125.5 -17.5t-125.5 -17.5q-29 0 -89 22q-12 -29 -36 -79q-18 -92 -23 -105q-23 -61 -70 -61q-45 0 -57 35q-6 16 -8 75q-4 84 -10 121q-12 63 -78 94q-84 0 -105 33 q-6 29 -10 57q-14 53 -47 54q-4 0 -14.5 -3t-14.5 -3q-41 0 -51 20q-4 8 -4 43zM473 879q0 -33 27 -33q16 0 64 20.5t52 20.5q18 0 57.5 -8.5t57.5 -8.5h39q31 4 31 35q0 23 -26.5 61t-47.5 38q-10 0 -46 -35t-58 -35q-29 0 -41 41l-13 65q-96 -123 -96 -161z" />
<glyph unicode="f" horiz-adv-x="868" d="M23 1018q0 27 27.5 55.5t53.5 28.5q6 0 16.5 -3t15.5 -3t13.5 -5.5t14.5 -5.5q29 0 29 35q0 33 -9 54q0 4 -10 20t-10 25q0 45 133 190q92 102 223 102q23 0 70 -17t67 -17q10 0 39 11t41 11q45 0 90 -80q43 -72 43 -121q0 -25 -8 -36q-25 -18 -71 -66q-2 -2 -19 -43 q-10 -27 -35 -27q-29 0 -45 48l-24 69q-25 -8 -80 -16q-39 -29 -39 -97v-24q4 -10 20 -10q178 0 179 -99q0 -12 -7.5 -39.5t-7.5 -39.5q1 -15 1 -31q0 -49 -5 -105q-10 -49 -59 -49q-31 0 -43 70q-2 6 -13 84q-18 4 -44.5 -2t-26.5 -25v-182q0 -119 4 -299q0 -20 8 -82 q5 -38 5 -65q0 -9 -1 -17q-2 -18 -27 -63q-29 -53 -33.5 -67.5t-4.5 -74.5v-53q0 -141 -64 -141q-55 0 -55 92q0 18 2 43t0 29q-2 59 -31 98q-4 -2 -41 -62.5t-63 -60.5q-49 0 -49 74q0 23 11 67.5t11 67.5q0 31 -25.5 83t-25.5 60q0 18 20.5 63.5t20.5 63.5q0 4 -16.5 39 t-18.5 47q-2 96 -10 187q-2 20 2 58t4 52q0 57 -33 80q-12 -29 -59 -29q-10 0 -43 19q0 23 -4 65.5t-4 65.5z" />
<glyph unicode="g" horiz-adv-x="1198" d="M-4 500q0 8 22 73q27 78 29 84q6 172 10 201q16 115 76 180q20 23 72 49l80 41q14 20 49 50q84 49 119 49q39 0 145 -49q27 -27 47 -27q4 0 9 3t10 3q2 0 39.5 -28.5t50.5 -30.5q31 71 66 71h1q6 0 24.5 -9t24.5 -9q4 0 31 12.5t33 14.5q51 14 119 14q18 0 30.5 -32 t12.5 -56q0 -39 -14.5 -112.5t-14.5 -112.5q0 -23 9 -69t9 -69q8 -10 21 -30q14 -60 14 -109q0 -18 -33 -65q-37 -53 -43 -74q-4 -113 -20 -344q-12 -25 -27 -70q0 -27 -10 -340q-2 -61 -55 -61q-59 0 -80 96q-14 68 -29 92q-4 0 -28.5 -12t-28.5 -17q-55 -24 -99 -24h-3 q-8 0 -24.5 -3t-25.5 -3q-25 0 -36 12q4 2 4 -22q-37 0 -107 -11q-20 -6 -31 -32l-18 -52q-8 -23 -64 -88h-7q-49 0 -60 58q0 -4 -4 102q-2 74 -35 74q-6 0 -50 -23.5t-52 -23.5q-41 0 -41 75q0 16 9 48t9 49q-5 32 -5 86q0 19 1 39q4 18 32.5 44.5t47.5 26.5q8 0 22.5 -10 t16.5 -12q76 -35 164 -37l163 -4h4q49 0 89 44q35 39 35 81q0 7 -1 14q-2 0 -19 -11t-26 -11q-8 0 -7 3t-5 3t-14 -11.5t-15 -11.5q-218 -46 -218 -49h1q-63 0 -170 49q-53 25 -75 78l-43 98q-4 27 -29 78q-20 2 -53 16q-31 23 -31 54zM395 653q0 -29 68 -149q4 -29 14 -64 q6 -20 25 -20q4 0 36.5 32.5t55.5 32.5q10 0 30.5 -6t30.5 -6q70 0 70 410q-10 -123 -66 -123q-49 0 -65 67q-6 51 -14 101h-21q-61 -41 -112.5 -123t-51.5 -152z" />
<glyph unicode="h" horiz-adv-x="1226" d="M33 893q0 12 8 29q4 45 33 151q26 93 26 150q0 18 -4 24v193q0 127 115 127q18 0 67.5 -36t55.5 -36q16 0 48 9t48 9q63 0 64 -67v1q-2 0 -17 -67q-24 -109 -24 -241v-11q0 -25 15 -51t38 -26q2 0 84 64.5t129 64.5q10 0 34.5 -8.5t34.5 -8.5t30 5.5t31 5.5t35.5 9 t37.5 9q29 0 73.5 -23.5t51.5 -48.5q14 -49 22 -170q8 -113 29 -170q4 -12 37 -69q20 -37 20 -78q0 -27 -20.5 -74t-20.5 -51q0 -6 16.5 -26.5t16.5 -28.5q20 -195 20 -244q0 -107 -108 -107h-4q-8 -18 -27 -61q-4 -25 -14 -66q-14 -59 -49 -59q-23 0 -46.5 30.5t-25.5 55.5 q1 11 1 25q0 42 -9 108q-35 23 -84 82q2 22 2 50q0 41 -4 95q-23 76 -23 177q0 29 2 86t2 86q0 90 -26 137h-17q-6 -10 -14 -33q-2 -37 -12 -110q-14 -104 -60 -105q-31 0 -41 98l-12 115q-18 8 -51 31q-8 20 -33 55q-31 -2 -37 -39q-14 -82 -14 -303q0 -49 4 -129 q4 -104 4 -129v-51l-4 -53q-4 -59 -64 -95q-14 -2 -43 -18q-18 -18 -22 -158q-14 -106 -64 -106q-18 0 -30 12q-10 74 -19 147q-18 82 -110 123q1 27 1 59q0 64 -5 146q-2 29 -23 96q-20 61 -20 95q0 39 11 118.5t11 118.5q0 53 -8 72q-4 10 -43 61q-6 10 -6 27z" />
<glyph unicode="i" horiz-adv-x="598" d="M29 520q0 10 21.5 63.5t23.5 69.5q10 51 14 156q12 238 113 238q12 0 40.5 -11.5t39.5 -11.5q-10 0 53 14q-6 23 -31 62q-22 22 -68 22h-4q-12 0 -36.5 -8t-36.5 -8q-82 0 -82 74q0 41 18 180q2 10 31 47q14 18 64.5 21.5t54.5 5.5q0 -20 4 -25q4 14 39 21l49 4 q43 22 63 22h2q47 0 91 -100q34 -80 34 -121q0 -35 -98 -133q-6 -18 -20 -53q-14 -10 -39 -33q2 -2 80 -25q27 -8 43 -52t16 -79q0 -47 -20.5 -140t-20.5 -140q0 -63 20.5 -187.5t20.5 -187.5q0 -18 -15.5 -57t-27.5 -52q-23 -12 -55 -43q-12 -23 -25 -100q-14 -94 -78 -94 q-49 0 -63 104q-2 25 -13 100q-10 37 -61 62q-76 35 -76 121q0 20 4 63t4 64q0 35 -10 49q-8 8 -47 51q-16 18 -16 47z" />
<glyph unicode="j" horiz-adv-x="837" d="M14 -186q0 29 15 120l4 93q14 79 70 79h1q10 0 71 -32.5t85 -32.5q45 0 55 57q2 14 2 34t-2 48l-8 105v6q0 20 11 58q12 44 12 65q0 14 -10.5 42.5t-12.5 39.5q-12 82 -12 137q0 29 17.5 86t17.5 86q0 47 -39 72q-20 2 -53 20q-8 10 -9 57q0 -8 9 21q-2 31 -2 55 q0 76 30.5 105.5t106.5 29.5q20 0 58 -12t48 -12q20 0 74.5 23.5t75.5 23.5h-1q0 -2 72 -27q20 -36 20 -112q0 -28 -3 -62q-6 -67 -6 -114q0 -56 8 -85q49 -186 49 -202q0 -33 -31 -70q-41 -49 -49 -70q-12 -33 -12 -75q0 -16 2 -33q4 -41 4 -69.5t-4 -43.5q-8 -29 -45 -135 q-31 -84 -31 -133l-4 -233q0 -10 -16.5 -21.5t-26.5 -11.5t-54 34.5t-58.5 41t-57.5 4.5q-45 -2 -70 -2q-18 -20 -59 -111q-31 -68 -61 -68q-47 0 -48 82v31q0 88 -55 88q-4 0 -10 -3t-10 -3q-10 0 -31 13.5t-27 15.5zM358 1341q0 14 19.5 62.5t19.5 69.5q0 2 -5 9t-5 13 q4 16 24.5 45t32.5 29q8 0 24.5 -6.5t24 -6.5t18.5 -3t17 -3q20 0 56.5 23.5t58.5 23.5q47 0 55 -18q7 -17 7 -41q0 -16 -3 -35q-10 -59 -10 -76q0 -23 17.5 -68t17.5 -65q0 -27 -21.5 -63.5t-46.5 -36.5q-10 0 -49 26.5t-47 26.5q-14 0 -44 -6t-44 -6q-49 0 -62.5 7t-34 44 t-20.5 55z" />
<glyph unicode="k" horiz-adv-x="1146" d="M12 1108q0 8 27 76.5t29 93.5q2 20 -5.5 61t-7.5 58q0 100 101 100q10 0 33.5 -9t35.5 -9q6 0 11.5 9t11.5 9q8 0 25.5 -6t25.5 -6q6 0 12 6t13 6l26 19q25 16 51 16q66 0 66 -80q0 -39 -14.5 -117t-14.5 -116q0 -29 12.5 -85.5t12.5 -84.5q0 -18 -31 -56l-33 -39 q-8 -20 -8 -55q0 -59 15 -88q12 -8 34 -23q37 53 123 144q31 8 84 43q49 90 92 162q8 14 60 69q27 20 55.5 76.5t46.5 71.5q10 8 68 8q16 0 96 -90q41 -45 41 -55l-21 -56q-23 -61 -30 -125q2 -70 2 -139q0 -55 -45 -55t-62 30q-4 14 -12 46q-25 -20 -88 -109 q-78 -109 -78 -141q0 -31 90 -162q25 -45 92 -133q45 -31 131 -107q21 -24 21 -90q0 -90 -80 -90q-41 0 -147 31q-12 12 -45 28l-41 -98q-37 -90 -70 -90q-27 0 -41 90l-14 125q-15 121 -111 121h-6l4 74v15q0 65 -31 101q-37 35 -71 72h-4q-31 0 -31 -55q0 -20 8 -63.5 t8 -63.5q0 -27 -10 -49q8 -8 6 -48q-2 -37 -22 -118q-4 -6 -82 -21q-14 -31 -35 -90q-35 -147 -92 -147q-39 0 -52 120q-14 141 -26 156q-31 12 -84 41q0 16 -4 47t-4 47q0 35 17 102.5t17 102.5t-11 104.5t-11 104.5q0 41 20.5 121t20.5 121q0 31 -8 51q-4 8 -33 36.5 t-29 53.5z" />
<glyph unicode="l" horiz-adv-x="550" d="M29 934v-1q2 0 26 116q18 88 19 194q0 31 -17.5 93.5t-17.5 93.5q0 39 28.5 78.5t65.5 39.5q10 0 40 -12t42 -12h84q8 0 55 23.5t54 23.5q31 0 50 -31t19 -63q-25 -100 -39 -191q1 -19 1 -40q0 -83 -13 -199q-6 -53 -6 -140q0 -39 26.5 -114.5t26.5 -114.5l-23 -54 q-24 -53 -24 -83q0 -57 25.5 -168t25.5 -168q0 -43 -18 -72q-25 -18 -49 -57q-2 -23 -2 -43q0 -16 4 -51t4 -52q0 -90 -78 -90q-35 0 -60.5 131t-41.5 131q-8 0 -28 -6t-28 -6q-23 0 -42 35t-15 57v5q0 33 -12 270q0 6 -15 114q-5 40 -5 71q0 23 3 42q0 18 9.5 57t9.5 58 q0 43 -72 84q-12 16 -12 51z" />
<glyph unicode="m" horiz-adv-x="1789" d="M16 754q2 12 39 129q18 59 19 106q0 29 -14.5 82t-14.5 82l37 86q12 8 39 8q14 0 49 -12q2 4 4 22h35q6 2 8 0q0 -4 7 -4t7 -6t7 -6q-31 0 39.5 14.5t80.5 14.5q41 0 60 -8q27 -18 26 -74q20 -29 37 -29l76 55q76 55 135 56q35 0 92 -45q6 0 22.5 20.5t24 22.5t72.5 2 q8 0 47 -35t47 -39q63 -37 70 -37q10 0 108.5 82t137.5 82q16 0 49 -11.5t49 -11.5q4 0 13.5 3.5t13.5 3.5q203 0 223 -273q22 -108 22 -139q0 -22 -11 -63t-11 -62q0 -51 45 -238v-90q0 -51 -25.5 -150t-25.5 -151q0 -29 11 -85t11 -85q0 -31 -37 -104h-18q-51 0 -70 61 q-8 25 -12 115q-4 72 -31 111q-4 -2 -43 -59.5t-61 -57.5q-45 0 -45 86v117q0 31 -12 43q-74 51 -74 90q16 45 57 141q2 4 2 45q0 10 -10 62q-12 66 -16 96q-2 14 -2 57q0 65 4 195q0 20 -29 20q-10 0 -43 -14t-39 -14q-12 0 -35.5 6t-34.5 6q-23 0 -40 -27.5t-17 -52.5 q0 -18 4 -55t4 -56q-16 -115 -16 -123v-188q0 -23 6 -66t6 -65q0 -8 -10 -21q-2 -4 -2 -8q0 -10 8 -20q-33 -31 -72 -101q-1 -10 7 -32t8 -36q0 -19 -13 -59q-18 -57 -47 -57q-59 0 -73 100q-4 27 -11 101h-14q-4 0 -31.5 -18.5t-36.5 -18.5h-45q-12 23 -12 51q-1 2 -1 14 q0 36 5 160q-4 20 -30.5 53t-26.5 44q0 16 22.5 76.5t22.5 93.5q0 98 -25 237q-4 25 -59 68q-66 -82 -80 -82q-27 0 -57 76q-16 0 -58 -64q-24 -36 -24 -91q0 -27 6 -73q6 -45 6 -67q0 -23 -6 -65t-6 -64q0 33 -12 -41q-10 -63 -9 -78l7 -115q-4 -37 -25 -72q-8 -14 -51 -14 t-76 19q-18 -53 -59 -156q-16 -14 -29 -14q-68 0 -68 147v61q0 45 4 33q-6 23 -18 41q-33 39 -33 107q0 29 11.5 88t11.5 88q0 35 -17 53q-41 45 -41 70z" />
<glyph unicode="n" horiz-adv-x="1261" d="M43 702q0 16 31 72l30 55q14 76 15 168q0 25 -17.5 74t-17.5 74q0 166 104 166q14 0 71.5 -27t70.5 -27q66 0 98 -14q27 -12 80 -61q33 45 121 121q33 4 88 26q47 41 78 41q33 0 73 -47l41 -47q-10 0 -10 2q0 6 45 22q63 23 88 23q10 0 40 -30.5t34 -43.5q12 -37 29 -123 q2 -90 16 -262q2 -27 23.5 -88t21.5 -92q0 -14 -35 -63q-10 -14 -25.5 -56.5t-15.5 -58.5t6.5 -50t6.5 -50t-5 -29q2 -20 9 -84l12 -129q0 -152 -162 -152q-78 0 -94 15q-43 35 -43 120q0 12 2 38t2 38q0 23 -6 31q-18 14 -49 45q-6 12 -6 76q0 72 17 213t17 213 q0 111 -4 131q-17 86 -86 86h-6q-55 -98 -88 -98t-45 43q-14 53 -31 67q-48 -26 -48 -126q0 -11 1 -23v7q-2 0 -12 -171q0 -14 -10.5 -45t-10.5 -45q0 -51 9.5 -153.5t9.5 -154.5q0 -12 8 -36.5t8 -34.5q0 -25 -16 -76q-20 -66 -45 -66q-4 0 -35 23t-37 23q-16 0 -47 -72 q-27 -61 -33 -92h-33q-35 0 -57 43q-6 133 -10 155q-16 86 -76 127q-2 6 -6 88q-4 16 2 56.5t6 50.5q0 53 -65 139q-27 35 -27 55z" />
<glyph unicode="o" horiz-adv-x="1280" d="M33 745q0 86 55 224q8 20 54 67t53 74q27 115 137 141q27 6 200 39q23 8 175 8q10 0 57 -20.5t59 -20.5q10 0 30.5 6.5t31.5 6.5q6 0 17 -8.5t18 -8.5q154 -8 198 -188q20 -141 43 -283q43 -143 43 -190q0 -53 -33 -141q-45 -123 -49 -144q0 -14 5.5 -44t5.5 -44 q0 -55 -50 -55q-53 0 -65 41q-10 -16 -37 -27l-43 -16q-33 -18 -45 -158q4 -4 18 -4v-20q0 -57 -30 -97q-32 -41 -81 -41h-9q-20 29 -35 117q-20 123 -23 131q-23 80 -65 80q-14 0 -41 -3t-41 -3q-31 0 -152 82q-10 0 -53 -114t-78 -114q-55 0 -70 88l-4 107q-2 29 0 53 l2 53q0 68 -18 99q-33 20 -72 69q-7 22 -7 64v11v19q0 35 -3 52q-6 6 -80 33q-18 6 -18 79zM449 856q25 -2 24 -41v-57q14 -63 14 -82q0 -8 -5 -38t-3 -40q18 -55 64 -68q10 -4 73 -4q72 0 93 21q35 37 36 65q17 243 19 243v-3q0 76 -47 131h-21q-6 -53 -26 -131 q-37 -45 -58 -45q-49 0 -82 80q-6 14 -30 90q-20 -12 -51 -72v-49z" />
<glyph unicode="p" horiz-adv-x="1177" d="M16 358q0 25 15 72q16 57 18 74q10 68 17 268q0 23 7 71t7 72q0 35 -14.5 102.5t-14.5 102.5q0 158 107 158q16 0 37 -16q14 -14 30 -29q41 -10 123 -27q45 -23 49 -22q53 31 125 67q84 33 146 33q4 0 34.5 -19.5t42.5 -21.5q78 -4 158 -10q104 -23 131 -119 q29 -8 53 -119l41 -188q7 -16 7 -59q0 -66 -13 -105q-20 -68 -43 -154q-16 -66 -16 -51v-205q0 -35 -21.5 -62.5t-56.5 -27.5q-27 0 -67 41l-39 41q-6 0 -17.5 -8t-17.5 -8q-90 -18 -125 -19q-25 0 -75 8.5t-75 8.5q-14 0 -39.5 -2t-40.5 -2q0 -16 11 -115l8 -78 q0 -141 -76 -141q-4 0 -8 2t-6 2q-20 0 -37 -27q-10 -14 -17.5 -83.5t-21.5 -84.5q2 -4 2 -8q0 -16 -22.5 -37.5t-38.5 -21.5q-51 0 -64 119q-4 41 -6 73q-8 53 -25 64q-10 2 -63 20q-20 39 -21 97q0 31 13 127q6 44 6 79q0 28 -4 50q-2 8 -52.5 53t-50.5 65zM438 584 q0 -27 19 -76q6 -16 51 -39t65 -23h52q55 0 90 15q14 6 26 31q6 20 13 38q18 33 37 132q16 88 16 137q-25 139 -47 139q-14 0 -43 -39l6 -121q-4 -18 -18 -43q-18 -31 -33 -30h-29q-53 0 -53 79q0 141 -2 148h-21q-10 -12 -57 -31q-23 -20 -59 -53q-2 4 -2 -39q0 -39 2 -37 q14 -12 14 -37q0 -27 -13.5 -76t-13.5 -75z" />
<glyph unicode="q" horiz-adv-x="1325" d="M33 530q-1 6 -1 12q0 33 19 79q27 63 31 88l29 223q6 8 12 29q6 168 172 253q123 63 285 64q14 0 95 -38t116 -38h20q2 4 6 31l6 24q10 45 23 46q2 0 88 -7l86 -6q18 -2 55 10.5t53 12.5q49 0 66 -25q27 -39 27 -106q0 -27 -5.5 -80t-5.5 -80q0 -45 29 -141 q23 -76 23 -99q0 -39 -52 -73l-53 -37q-10 -25 -24 -76q-12 -145 -13 -315q0 -104 13 -156q2 -10 21.5 -58.5t19.5 -54.5q0 -109 -21 -166q-6 -18 -115 -92q0 -4 -12 -26.5t-14 -28.5q-29 -109 -70 -109h-35q-18 61 -18 97q0 170 -29 170q-12 0 -38.5 -5.5t-39.5 -5.5 q-2 35 -14 107q-16 29 -39 88q-2 23 2 61q4 49 4 64q0 88 -43 88q-10 0 -39.5 -11.5t-40 -11.5t-30 -6t-27.5 -6q-16 0 -51 9.5t-51 9.5q-8 0 -53.5 -129t-86.5 -129q-63 0 -71 106q-2 33 -4 125q0 25 -15 63q-12 23 -35 39l-36 21q-14 25 -15 51v53q0 66 -59 76 q-35 6 -45 16zM436 725q0 -37 25 -113q31 -94 71 -94q18 0 56 24l39 23q23 0 53 -22l33 -25q29 0 37 55q43 279 43 320q0 53 -29 63q1 -6 1 -12q0 -30 -17 -64q-19 -40 -52 -40q-41 0 -69 75q-2 4 -29 89h-18q-33 -8 -50 -52l-26 -67q-68 -98 -68 -160z" />
<glyph unicode="r" horiz-adv-x="929" d="M27 633q0 51 22.5 152.5t22.5 152.5q0 29 -14.5 86t-14.5 86q0 31 40 74t71 43q8 0 40.5 -14.5t38.5 -14.5t25 10l23 11q20 2 57 10q6 2 32.5 23.5t43.5 21.5q35 0 47 -64l8 -94q203 82 258 82q66 0 158 -27q20 -59 24 -61q0 -20 -20.5 -67.5t-20.5 -67.5q0 -14 14.5 -52 t14.5 -53q0 -27 -25.5 -48t-52.5 -21q-6 0 -17 5t-18.5 5t-25 20.5t-25.5 20.5q-41 0 -55 -127q-23 -33 -51 -84h-19q-10 0 -24 21q-12 92 -35 167q-68 -23 -84 -63q-6 -16 -6 -86q0 -12 3 -38t3 -38v-141q0 -23 8 -65t8 -64q0 -70 -18 -117q-6 -12 -33 -14q-33 -6 -43 -13 q-31 -23 -33 -55q0 10 4 -53q1 -16 1 -35t-1 -41q-2 -45 -14 -65q-29 -47 -68 -47q-47 0 -63 79q-8 47 -10 152q0 88 -8 96q-31 12 -84 43q-14 12 -15 53q0 29 11.5 83.5t11.5 82.5q0 88 -33 99q-59 18 -59 51z" />
<glyph unicode="s" horiz-adv-x="1118" d="M53 446q0 143 53 154l48 8q-2 41 -21 109q-55 66 -55 106q0 10 8 36t6 40v17q0 164 150 286q135 111 270 111q12 0 70.5 -26.5t68.5 -26.5q-4 0 72 51q23 8 92 8q20 0 81.5 -21.5t68.5 -33.5q14 -31 14 -72q0 -39 -51 -176q-10 4 -19 -17q4 -10 -8 -49h-20 q-76 63 -105 64q-6 0 -26.5 -18.5t-24.5 -20.5t-43 -2t-64.5 50t-39.5 50q-20 0 -50 -27.5t-30 -48.5q0 -18 20.5 -39.5t40.5 -27.5q23 -14 78 -37q39 -2 123 -10q18 -8 63 -25q115 -43 131 -55q49 -39 50 -131v-105q6 -29 30 -114q21 -72 21 -80q0 -78 -47 -135 q-12 -14 -56 -15q-31 0 -74.5 47t-52.5 47q12 0 -49 -20q-16 -10 -88 -16q-16 -2 -31 -27q-8 -43 -18 -86q-16 -49 -59 -49q-20 0 -27 2q-49 47 -55 121q-35 4 -170 28q-16 -29 -37 -98q-16 -55 -51 -100q-14 -2 -27 -2q-66 0 -72 94l-8 139q-33 27 -72 66q-8 8 -8 77z M195 586q18 -14 102 -50t102 -36h43q59 0 119 20q78 27 78 72q0 25 -21 39q-86 6 -198 22q-12 2 -49 17.5t-45 15.5q-23 0 -55.5 -47t-40 -47t-18.5 -3t-17 -3z" />
<glyph unicode="t" horiz-adv-x="905" d="M45 942q0 23 33 121q2 27 22 65q31 18 60 19q6 0 20.5 -2t20.5 -2q57 0 57 121v8q-1 27 -1 46q0 40 3 52q47 43 105 43q14 0 43.5 -7t44.5 -7h77q10 -10 23.5 -100.5t40.5 -120.5q216 16 216 18h-3q27 0 41 -61q0 -12 -24.5 -60.5t-26.5 -62.5v-60q0 -66 -4 -92 q-10 -67 -57 -67h-1q-37 0 -63 41l-45 69h-15q-16 -35 -32 -115q3 -22 3 -58q0 -18 -1 -40q0 -14 -19 -98q-14 -68 -14 -90q0 -33 28.5 -61.5t61.5 -28.5q20 0 64.5 41t64.5 41q14 0 37.5 -40t23.5 -57q0 -20 -16 -60t-16 -46q-8 -29 -19 -86q8 -61 15 -182q-2 -16 -13 -48 q-25 -71 -80 -71h-2q-16 0 -28 2q-25 35 -43 108q-23 90 -29 105q-10 -16 -41 -17q-4 0 -57 17q-12 -12 -45 -133q-18 -72 -49 -72h-19q-14 0 -32.5 22.5t-20.5 38.5q-8 72 -10 164q0 39 -52 90l-67 68q-17 35 -17 142v12q0 29 -56 87t-56 78q0 6 20.5 42t22.5 51 q14 53 14 186q-88 29 -88 47z" />
<glyph unicode="u" horiz-adv-x="1230" d="M35 723q0 10 14 49q16 47 19 55q14 57 41 203q0 43 12 129q0 31 14 84q18 31 78 31q10 0 30.5 -6t30.5 -6q25 0 86.5 23.5t85.5 23.5q27 0 62 -84q0 -12 -9.5 -43t-6.5 -45v-11q0 -120 -41 -383q6 -35 8 -75q0 -6 -33 -88q4 -8 45 -18.5t53 -29.5q12 -29 29 -57 q14 -20 51 -20q43 0 88 59q37 49 43 78q18 90 19 164q0 39 -11.5 114.5t-11.5 114.5v240q51 37 62 37q20 0 61 -14.5t64 -14.5q25 0 70.5 8t70.5 8q41 0 55 -88q6 -36 6 -65.5t-6 -53.5q-6 -25 -6 -51q0 -37 17.5 -105.5t19.5 -101.5q0 -12 9 -35.5t9 -33.5 q0 -2 -34.5 -51.5t-38.5 -61.5q-78 -233 -78 -264q0 -51 17.5 -152.5t17.5 -152.5q0 -10 -10.5 -26.5t-18.5 -16.5h-25q-43 0 -103.5 124t-70.5 124q-14 0 -41.5 -8.5t-40.5 -8.5q-16 0 -50 8.5t-50 8.5q-25 0 -70 -14.5t-67 -14.5q-10 0 -32 6t-32 6q-18 0 -20 -6 q-41 -82 -47 -115q-14 -90 -74 -90q-67 0 -67 122q0 13 1 28q1 13 1 24q0 71 -21 115q-57 39 -90 104q-2 4 -8 150q-4 72 -58 115q-18 12 -18 55z" />
<glyph unicode="v" horiz-adv-x="1212" d="M29 782q0 39 14 101q20 92 23 104q-4 20 -5 53q0 23 2 54q14 49 70 108q23 25 74 37q70 16 80 21q23 23 28 22q4 0 32 -18.5t36 -20.5q68 -25 88 -110q8 -35 31 -134q23 -23 55 -75q1 -9 1 -21q0 -23 -5 -57q-8 -59 -8 -80q0 -70 35 -111q20 23 51 105q20 59 43 117 q18 16 53 59q31 55 35 80q8 47 39 217q0 10 25.5 26.5t37.5 16.5q23 0 68 -14.5t69 -14.5q6 0 37 14.5t41 14.5h111q8 -12 8 -35q0 -45 -23.5 -129t-25.5 -125l-2 -74q-10 -49 -33 -82q-25 -2 -49.5 22t-28.5 48q-23 -25 -43 -90q-27 -86 -32 -100q-135 -211 -154 -334 q-2 -14 -2 -137q0 -47 -2 -74q-8 -14 -8 -12l8 -11h-35h-1q-20 0 -52 52q-23 -23 -56 -121q-27 -78 -49 -78q-18 0 -32 84q-16 94 -46 113q-29 2 -81 20q-10 6 -36 65.5t-26 73.5q-18 41 -35 60q-90 102 -125 305q-2 18 -59 102q-14 -8 -53 -69q-29 -45 -76 -52 q-12 45 -12 84z" />
<glyph unicode="w" horiz-adv-x="1701" d="M31 831v-1q2 0 32 182q1 8 1 20q0 38 -15 113q-1 3 -1 7q0 25 22 97q96 68 161 82q4 0 17.5 8.5t21.5 8.5q12 0 35 -10.5t27 -20.5q10 -18 17 -75.5t16 -78.5q25 -43 55 -129q2 -94 6 -155q8 -125 41 -170h16q20 51 23 137q39 27 78 129q27 76 51 151q31 90 41 162 q4 0 26.5 12.5t28.5 12.5q29 0 86 -47h17q67 22 103 22h3q41 0 51 -12q29 -35 47 -150q23 -139 37 -178q10 -27 15 -121q4 -78 24 -112q29 35 43 80l78 241q39 121 96 234q16 8 45 28q8 14 15 29q16 27 28 27q8 0 47 -20.5t47 -20.5q14 2 113 16q10 -25 10 -70v-16l-2 -74 q0 -29 21 -141l18 -98q0 -10 -18.5 -24.5t-28.5 -14.5q-45 0 -78 41q-35 -45 -53 -141q-43 -223 -90 -377q-1 -5 -1 -15q0 -20 3 -59q6 -84 6 -96q0 -39 -14 -78q-18 -53 -49 -53q-49 0 -70 131q-4 29 -20 61q-31 -10 -64 -10q-10 0 -36.5 11t-39.5 11q-14 0 -51 -90 t-65 -90q-14 0 -37 17.5t-23 31.5q0 217 -10 275q-4 23 -23 53l-30 51q-29 127 -76 314q-23 -23 -31 -97q-12 -102 -16 -110l-37 -103q-25 -68 -25 -127q0 -25 14.5 -72.5t14.5 -72.5q0 -16 -21.5 -45t-35.5 -29q-8 0 -33 20.5t-33 20.5q-43 0 -76 -22q-8 -6 -20 -148 q-10 -127 -66 -127q-48 0 -48 64q0 9 1 20q5 45 5 95q0 60 -7 126q-43 14 -119 54q-18 66 -77 204q0 2 -15 109q-10 80 -53 106q-27 -31 -51 -30q-45 0 -45 116z" />
<glyph unicode="x" horiz-adv-x="1191" d="M27 291q4 59 71 160q25 37 97 141q4 10 67 96q45 61 45 72q0 6 -51 76q-57 80 -80 120q-8 16 -24 17l-27 -31q-29 -33 -47 -33q-23 0 -35 25q-8 115 -8 182q0 66 8 88q0 39 41 64.5t82 25.5q18 0 54 -5t54 -5q12 0 37 3t37 3q47 0 84 -45q25 -31 64 -110q16 -18 47 -58 q14 -35 59 -104q20 41 57 110q29 31 72 88q16 45 51 125q23 41 76 41q14 0 41 -3t41 -3q12 2 48 15.5t46 13.5q8 0 47 -18.5t45 -20.5q23 -11 23 -72q0 -59 -23 -80q-33 -31 -47 -71q-8 -23 -8 -156q0 -12 6 -38.5t6 -39.5q0 -29 -18 -57q-18 -14 -33 -14q-51 0 -102 110 q-18 0 -52 -48t-34 -69q0 -18 92 -135q8 -8 35 -57q33 -80 96 -123q47 -33 47 -102q0 -10 -8 -58l-14 -84q0 -14 3 -44.5t3 -45.5q0 -94 -70 -94q-25 0 -55.5 82t-48.5 82q-4 0 -14.5 -3t-14.5 -3q-23 0 -35 16q-25 27 -31 31q-29 -27 -34 -45q-27 -135 -56 -135 q-19 0 -43 64q-21 55 -21 78q0 4 1 7v219q-63 0 -64 58q0 8 2 24v25q0 47 -41 57q-29 -27 -49 -98q-27 -92 -28 -111q-25 -20 -66 -78l-4 -53q-6 -37 -18 -47q-27 -23 -50 -23q-4 0 -11 2.5t-11 2.5q-10 0 -44 -102.5t-73 -102.5q-51 0 -51 84q0 20 4 59t4 60q0 73 -42 73 h-1q-6 0 -18.5 -3t-18.5 -3q-29 0 -69 31z" />
<glyph unicode="y" horiz-adv-x="1146" d="M52.5 1193q29.5 46 66.5 64l12 -12q12 0 34.5 -5t33.5 -5q6 0 12 5t13 5t44 20.5t43 20.5q51 0 80 -69q4 -18 31 -113q4 -10 41 -70q33 -51 33 -65q0 -6 -14.5 -35t-14.5 -35l37 -100q4 -8 26 -8q68 0 115 202q29 43 76 133q2 47 35 136q19 30 84 30h4q10 0 32.5 -5 t32.5 -5q8 0 27.5 5t30 5t45.5 15.5t49 15.5t26.5 -16.5t12.5 -30.5q0 -27 -12.5 -76t-12.5 -76q0 -37 17.5 -108.5t17.5 -108.5q0 -82 -51 -82q-14 0 -33 23q-29 35 -41 47q-20 -18 -31 -45q-14 -53 -45 -158q-45 -90 -112 -268q-23 -84 -23 -205q0 -10 7 -38.5t5 -43.5 q-12 -78 -67 -78q-6 0 -17.5 2t-17.5 2q-31 0 -47 -100l-21 -125q-16 -37 -47 -37q-8 0 -46 17.5t-44 17.5q-8 0 -11 -6t-9 -6q-18 0 -60 41q-23 -27 -42 -138.5t-38 -136.5q-45 8 -61 56q-4 8 -4 26q0 25 6 75t6 75q0 61 -26 61q-8 0 -9 -2q0 -4 -8 -4q-27 0 -78 25 q6 76 115 190q29 31 74 119t45 123q0 45 -68 151q-25 -16 -47 -53q-14 -23 -45 -22q-47 0 -47 96q0 20 7 58t7 59q0 27 -20.5 68.5t-24.5 61t-22 105.5q-8 39 -56 119q-40 66 -40 126q0 44 29.5 90z" />
<glyph unicode="z" horiz-adv-x="1179" d="M53 240q0 14 7.5 46.5t5.5 51.5q-4 56 -4 90t4 47q10 31 100 78q45 23 96 102q39 63 76 127q25 31 98 88q57 45 62 76q-10 10 -15 10q-6 0 -15 -8t-16.5 -9t-50.5 -1q-29 0 -67 16l-39 15q-35 0 -35 -86q0 -14 2 -25q-29 -37 -33 -41q-10 -8 -43 -14q-12 -4 -22 -4 q-61 0 -62 45q0 8 2 22.5t2 22.5v174q0 12 -6 35.5t-6 36.5q0 35 28 68.5t62 33.5q8 0 6 -3t7 -3q4 0 16 22q35 -10 106 -10q29 0 85.5 11.5t84.5 11.5q8 0 23.5 -3t24.5 -3q6 0 58 38.5t81 38.5q16 0 67.5 -47t73.5 -47q20 0 77.5 23.5t80.5 23.5q27 0 51.5 -17.5 t24.5 -43.5q-4 -34 -4 -89q0 -36 2 -81q6 -25 20 -45q8 -10 8 -58q0 -110 -146 -110h-3q-4 0 -9.5 2t-9.5 2q-49 0 -49 -102v-56q0 -12 2 -33v-22q0 -102 -49 -102q-35 0 -75 61t-42 61q-14 0 -59 -53l-64 -74v-24q12 2 33 2q49 0 152 -16q8 0 29.5 -13.5t29.5 -13.5 q27 0 133 53q8 4 35 30.5t37 26.5q16 0 36.5 -25.5t22.5 -41.5q1 -9 1 -20q0 -22 -3 -50q-6 -55 -6 -69v-14q-1 -44 9 -117q12 -86 12 -127q0 -66 -19 -136q-4 -16 -28 -43h-27q-10 10 -64 101q-29 133 -82 133q-10 0 -32.5 -8t-34.5 -8q-6 0 -20.5 5t-22.5 5q-10 0 -54 -43 t-71 -43q-33 0 -98 98q-18 -12 -56 -10q-35 2 -47 2q-12 -12 -32 -43q-4 -29 -14 -111q-12 -96 -77 -96q-29 0 -59.5 123t-46.5 123q-10 0 -29.5 -2t-29.5 -2q-96 0 -97 84z" />
<glyph unicode="{" />
<glyph unicode="|" />
<glyph unicode="}" />
<glyph unicode="~" />
<glyph unicode="&#xa0;" />
<glyph unicode="&#xad;" horiz-adv-x="1210" d="M133 580q0 35 31 86t61 61q72 25 101 25q8 0 5 -6.5t5 -6.5q12 0 47 15.5t49 15.5q4 0 10.5 -3t10.5 -3q35 0 57 22l14 -12q0 2 8.5 2t8.5 2q0 4 -4 8q150 -35 223 -34q16 0 46 3t46 3q63 0 113 -29q57 -33 57 -92q0 -39 -16 -80q-18 -47 -50 -61q-68 -31 -137 -31 q-18 0 -57 2t-57 2q-14 0 -44 -10t-43 -10q-25 0 -71.5 11t-71.5 11q-37 0 -41 -47l-8 -96q-16 -49 -80 -49q-63 0 -63 71q0 8 4 49q4 35 2 45q-8 14 -96 29q-59 29 -60 107z" />
<glyph unicode="&#x2c6;" />
<glyph unicode="&#x2000;" horiz-adv-x="822" />
<glyph unicode="&#x2001;" horiz-adv-x="1645" />
<glyph unicode="&#x2002;" horiz-adv-x="822" />
<glyph unicode="&#x2003;" horiz-adv-x="1645" />
<glyph unicode="&#x2004;" horiz-adv-x="548" />
<glyph unicode="&#x2005;" horiz-adv-x="411" />
<glyph unicode="&#x2006;" horiz-adv-x="274" />
<glyph unicode="&#x2007;" horiz-adv-x="274" />
<glyph unicode="&#x2008;" horiz-adv-x="205" />
<glyph unicode="&#x2009;" horiz-adv-x="329" />
<glyph unicode="&#x200a;" horiz-adv-x="91" />
<glyph unicode="&#x2010;" horiz-adv-x="1210" d="M133 580q0 35 31 86t61 61q72 25 101 25q8 0 5 -6.5t5 -6.5q12 0 47 15.5t49 15.5q4 0 10.5 -3t10.5 -3q35 0 57 22l14 -12q0 2 8.5 2t8.5 2q0 4 -4 8q150 -35 223 -34q16 0 46 3t46 3q63 0 113 -29q57 -33 57 -92q0 -39 -16 -80q-18 -47 -50 -61q-68 -31 -137 -31 q-18 0 -57 2t-57 2q-14 0 -44 -10t-43 -10q-25 0 -71.5 11t-71.5 11q-37 0 -41 -47l-8 -96q-16 -49 -80 -49q-63 0 -63 71q0 8 4 49q4 35 2 45q-8 14 -96 29q-59 29 -60 107z" />
<glyph unicode="&#x2011;" horiz-adv-x="1210" d="M133 580q0 35 31 86t61 61q72 25 101 25q8 0 5 -6.5t5 -6.5q12 0 47 15.5t49 15.5q4 0 10.5 -3t10.5 -3q35 0 57 22l14 -12q0 2 8.5 2t8.5 2q0 4 -4 8q150 -35 223 -34q16 0 46 3t46 3q63 0 113 -29q57 -33 57 -92q0 -39 -16 -80q-18 -47 -50 -61q-68 -31 -137 -31 q-18 0 -57 2t-57 2q-14 0 -44 -10t-43 -10q-25 0 -71.5 11t-71.5 11q-37 0 -41 -47l-8 -96q-16 -49 -80 -49q-63 0 -63 71q0 8 4 49q4 35 2 45q-8 14 -96 29q-59 29 -60 107z" />
<glyph unicode="&#x2012;" horiz-adv-x="1210" d="M133 580q0 35 31 86t61 61q72 25 101 25q8 0 5 -6.5t5 -6.5q12 0 47 15.5t49 15.5q4 0 10.5 -3t10.5 -3q35 0 57 22l14 -12q0 2 8.5 2t8.5 2q0 4 -4 8q150 -35 223 -34q16 0 46 3t46 3q63 0 113 -29q57 -33 57 -92q0 -39 -16 -80q-18 -47 -50 -61q-68 -31 -137 -31 q-18 0 -57 2t-57 2q-14 0 -44 -10t-43 -10q-25 0 -71.5 11t-71.5 11q-37 0 -41 -47l-8 -96q-16 -49 -80 -49q-63 0 -63 71q0 8 4 49q4 35 2 45q-8 14 -96 29q-59 29 -60 107z" />
<glyph unicode="&#x2013;" horiz-adv-x="1345" d="M133 580q0 35 35.5 86t70.5 61q83 25 116 25q10 0 6.5 -6.5t5.5 -6.5q14 0 54 15.5t56 15.5q5 0 12.5 -3t12.5 -3q40 0 65 22l16 -12q0 2 10 2t10 2q0 4 -5 8q173 -35 257 -34q19 0 53.5 3t52.5 3q73 0 130 -29q66 -33 66 -92q0 -39 -18 -80q-21 -47 -58 -61 q-78 -31 -158 -31q-21 0 -65.5 2t-65.5 2q-16 0 -50.5 -10t-49.5 -10q-29 0 -82.5 11t-82.5 11q-43 0 -47 -47l-10 -96q-18 -49 -92 -49q-72 0 -72 71q0 8 4 49q5 35 3 45q-10 14 -111 29q-68 29 -69 107z" />
<glyph unicode="&#x2014;" horiz-adv-x="2369" d="M133 580q0 35 71.5 86t140.5 61q166 25 233 25q18 0 11 -6.5t12 -6.5q27 0 108 15.5t113 15.5q9 0 24 -3t24 -3q81 0 131 22l33 -12q0 2 19.5 2t19.5 2q0 4 -9 8q345 -35 513 -34q37 0 106.5 3t105.5 3q146 0 261 -29q131 -33 131 -92q0 -39 -37 -80q-41 -47 -115 -61 q-157 -31 -316 -31q-41 0 -131 2t-131 2q-33 0 -102 -10t-99 -10q-57 0 -164.5 11t-164.5 11q-85 0 -95 -47l-18 -96q-37 -49 -184 -49q-145 0 -145 71q0 8 9 49q9 35 4 45q-18 14 -221 29q-136 29 -138 107z" />
<glyph unicode="&#x201a;" />
<glyph unicode="&#x201e;" />
<glyph unicode="&#x2026;" />
<glyph unicode="&#x202f;" horiz-adv-x="329" />
<glyph unicode="&#x205f;" horiz-adv-x="411" />
<glyph unicode="&#x25fc;" horiz-adv-x="1361" d="M0 0v1362h1362v-1362h-1362z" />
</font>
</defs>
</svg>
